<?xml version="1.0" encoding="UTF-8"?>
<svg xmlns="http://www.w3.org/2000/svg" xmlns:xlink="http://www.w3.org/1999/xlink" width="854" height="480" viewBox="0 0 854 480">
<defs>
<g>
<g id="glyph-0-0">
<path d="M 5.359375 0 L 0.820312 0 L 0.820312 -7.289062 L 5.359375 -7.289062 L 5.359375 -6.019531 L 2.261719 -6.019531 L 2.261719 -4.449219 L 5.070312 -4.449219 L 5.070312 -3.179688 L 2.261719 -3.179688 L 2.261719 -1.269531 L 5.359375 -1.269531 Z "/>
</g>
<g id="glyph-0-1">
<path d="M 5.589844 -5.46875 L 3.75 -2.851562 L 5.75 0 L 4.082031 0 L 3.007812 -1.839844 L 1.9375 0 L 0.269531 0 L 2.289062 -2.851562 L 0.429688 -5.46875 L 2.101562 -5.46875 L 3.007812 -3.835938 L 3.921875 -5.46875 Z "/>
</g>
<g id="glyph-0-2">
<path d="M 3.367188 -7.023438 L 3.367188 -5.46875 L 5.238281 -5.46875 L 5.238281 -4.371094 L 3.367188 -4.371094 L 3.367188 -1.78125 C 3.367188 -1.539062 3.429688 -1.363281 3.546875 -1.257812 C 3.664062 -1.152344 3.863281 -1.097656 4.140625 -1.097656 L 5.238281 -1.097656 L 5.238281 0 L 4.039062 0 C 3.21875 0 2.664062 -0.132812 2.375 -0.394531 C 2.085938 -0.65625 1.9375 -1.140625 1.9375 -1.851562 L 1.9375 -4.371094 L 0.542969 -4.371094 L 0.542969 -5.46875 L 1.9375 -5.46875 L 1.9375 -7.023438 Z "/>
</g>
<g id="glyph-0-3">
<path d="M 5.382812 -0.269531 C 5.050781 -0.132812 4.710938 -0.03125 4.367188 0.0390625 C 4.019531 0.109375 3.65625 0.140625 3.273438 0.140625 C 2.359375 0.140625 1.65625 -0.101562 1.175781 -0.59375 C 0.691406 -1.082031 0.449219 -1.789062 0.449219 -2.710938 C 0.449219 -3.601562 0.683594 -4.304688 1.148438 -4.824219 C 1.613281 -5.34375 2.246094 -5.601562 3.050781 -5.601562 C 3.863281 -5.601562 4.492188 -5.359375 4.9375 -4.878906 C 5.386719 -4.398438 5.609375 -3.722656 5.609375 -2.851562 L 5.609375 -2.269531 L 1.90625 -2.269531 C 1.90625 -1.839844 2.035156 -1.519531 2.285156 -1.308594 C 2.535156 -1.097656 2.910156 -0.992188 3.40625 -0.992188 C 3.734375 -0.992188 4.0625 -1.039062 4.378906 -1.132812 C 4.699219 -1.226562 5.03125 -1.375 5.382812 -1.582031 Z M 4.171875 -3.34375 C 4.164062 -3.722656 4.066406 -4.007812 3.878906 -4.203125 C 3.691406 -4.394531 3.417969 -4.492188 3.050781 -4.492188 C 2.722656 -4.492188 2.460938 -4.390625 2.265625 -4.191406 C 2.070312 -3.992188 1.953125 -3.707031 1.917969 -3.339844 Z "/>
</g>
<g id="glyph-0-4">
<path d="M 5.621094 -3.960938 C 5.464844 -4.101562 5.28125 -4.210938 5.070312 -4.28125 C 4.859375 -4.351562 4.628906 -4.390625 4.378906 -4.390625 C 4.078125 -4.390625 3.8125 -4.335938 3.585938 -4.230469 C 3.359375 -4.125 3.183594 -3.972656 3.0625 -3.769531 C 2.984375 -3.644531 2.929688 -3.496094 2.898438 -3.320312 C 2.867188 -3.144531 2.851562 -2.878906 2.851562 -2.519531 L 2.851562 0 L 1.421875 0 L 1.421875 -5.46875 L 2.851562 -5.46875 L 2.851562 -4.617188 C 2.992188 -4.929688 3.207031 -5.171875 3.496094 -5.34375 C 3.785156 -5.515625 4.125 -5.601562 4.511719 -5.601562 C 4.707031 -5.601562 4.898438 -5.578125 5.085938 -5.53125 C 5.273438 -5.484375 5.449219 -5.414062 5.621094 -5.320312 Z "/>
</g>
<g id="glyph-0-5">
<path d="M 5.230469 -3.550781 L 5.230469 0 L 3.808594 0 L 3.808594 -3.328125 C 3.808594 -3.726562 3.753906 -4.011719 3.640625 -4.183594 C 3.527344 -4.351562 3.34375 -4.4375 3.089844 -4.4375 C 2.832031 -4.4375 2.632812 -4.324219 2.484375 -4.09375 C 2.335938 -3.859375 2.261719 -3.539062 2.261719 -3.128906 L 2.261719 0 L 0.839844 0 L 0.839844 -5.46875 L 2.261719 -5.46875 L 2.261719 -4.648438 C 2.363281 -4.953125 2.535156 -5.1875 2.777344 -5.351562 C 3.023438 -5.515625 3.316406 -5.601562 3.664062 -5.601562 C 4.179688 -5.601562 4.570312 -5.429688 4.835938 -5.085938 C 5.097656 -4.742188 5.230469 -4.230469 5.230469 -3.550781 Z "/>
</g>
<g id="glyph-0-6">
<path d="M 3.417969 -2.570312 C 2.882812 -2.570312 2.511719 -2.5 2.300781 -2.363281 C 2.089844 -2.226562 1.984375 -1.992188 1.984375 -1.660156 C 1.984375 -1.414062 2.054688 -1.214844 2.203125 -1.070312 C 2.347656 -0.921875 2.546875 -0.851562 2.796875 -0.851562 C 3.175781 -0.851562 3.46875 -0.992188 3.675781 -1.277344 C 3.882812 -1.5625 3.988281 -1.960938 3.988281 -2.46875 L 3.988281 -2.570312 Z M 5.410156 -3.121094 L 5.410156 0 L 3.988281 0 L 3.988281 -0.609375 C 3.816406 -0.367188 3.59375 -0.183594 3.324219 -0.0546875 C 3.054688 0.078125 2.757812 0.140625 2.429688 0.140625 C 1.808594 0.140625 1.324219 -0.0234375 0.980469 -0.351562 C 0.632812 -0.679688 0.460938 -1.140625 0.460938 -1.726562 C 0.460938 -2.367188 0.664062 -2.835938 1.078125 -3.140625 C 1.492188 -3.445312 2.132812 -3.597656 3 -3.597656 L 3.988281 -3.597656 L 3.988281 -3.835938 C 3.988281 -4.070312 3.90625 -4.242188 3.738281 -4.363281 C 3.570312 -4.480469 3.324219 -4.539062 3 -4.539062 C 2.65625 -4.539062 2.324219 -4.496094 2.003906 -4.410156 C 1.683594 -4.324219 1.347656 -4.1875 1 -4 L 1 -5.21875 C 1.316406 -5.351562 1.636719 -5.445312 1.960938 -5.507812 C 2.289062 -5.570312 2.632812 -5.601562 3 -5.601562 C 3.886719 -5.601562 4.511719 -5.421875 4.871094 -5.058594 C 5.230469 -4.695312 5.410156 -4.050781 5.410156 -3.121094 Z "/>
</g>
<g id="glyph-0-7">
<path d="M 1.890625 -2.28125 L 1.890625 -6.5 L 0.4375 -6.5 L 0.4375 -7.597656 L 3.320312 -7.597656 L 3.320312 -2.28125 C 3.320312 -1.851562 3.386719 -1.546875 3.519531 -1.367188 C 3.652344 -1.1875 3.878906 -1.097656 4.199219 -1.097656 L 5.34375 -1.097656 L 5.34375 0 L 3.796875 0 C 3.117188 0 2.628906 -0.175781 2.335938 -0.527344 C 2.039062 -0.878906 1.890625 -1.464844 1.890625 -2.28125 Z "/>
</g>
<g id="glyph-0-8">
<rect x="0" y="0" width="0" height="0" mask="url(#mask-0)"/>
</g>
<g id="glyph-0-9">
<path d="M 5.277344 -0.210938 C 5.050781 -0.09375 4.8125 -0.00390625 4.5625 0.0546875 C 4.3125 0.113281 4.046875 0.140625 3.769531 0.140625 C 2.785156 0.140625 2.035156 -0.183594 1.519531 -0.828125 C 1 -1.476562 0.742188 -2.414062 0.742188 -3.636719 C 0.742188 -4.863281 1 -5.800781 1.519531 -6.449219 C 2.035156 -7.097656 2.785156 -7.421875 3.769531 -7.421875 C 4.046875 -7.421875 4.3125 -7.390625 4.566406 -7.335938 C 4.820312 -7.277344 5.058594 -7.1875 5.277344 -7.070312 L 5.277344 -5.46875 C 5.03125 -5.695312 4.789062 -5.863281 4.558594 -5.96875 C 4.324219 -6.074219 4.085938 -6.128906 3.835938 -6.128906 C 3.308594 -6.128906 2.914062 -5.917969 2.644531 -5.5 C 2.375 -5.082031 2.242188 -4.460938 2.242188 -3.636719 C 2.242188 -2.816406 2.375 -2.199219 2.644531 -1.78125 C 2.914062 -1.363281 3.3125 -1.152344 3.835938 -1.152344 C 4.085938 -1.152344 4.324219 -1.207031 4.558594 -1.3125 C 4.789062 -1.417969 5.03125 -1.582031 5.277344 -1.8125 Z "/>
</g>
<g id="glyph-0-10">
<path d="M 3.007812 -4.4375 C 2.664062 -4.4375 2.398438 -4.289062 2.203125 -3.988281 C 2.007812 -3.6875 1.910156 -3.265625 1.910156 -2.730469 C 1.910156 -2.191406 2.007812 -1.773438 2.203125 -1.472656 C 2.398438 -1.171875 2.664062 -1.019531 3.007812 -1.019531 C 3.351562 -1.019531 3.625 -1.171875 3.820312 -1.472656 C 4.015625 -1.773438 4.109375 -2.191406 4.109375 -2.730469 C 4.109375 -3.265625 4.015625 -3.6875 3.820312 -3.988281 C 3.625 -4.289062 3.351562 -4.4375 3.007812 -4.4375 Z M 0.476562 -2.730469 C 0.476562 -3.613281 0.707031 -4.3125 1.164062 -4.828125 C 1.621094 -5.34375 2.234375 -5.601562 3.007812 -5.601562 C 3.78125 -5.601562 4.398438 -5.34375 4.855469 -4.828125 C 5.3125 -4.3125 5.542969 -3.613281 5.542969 -2.730469 C 5.542969 -1.847656 5.3125 -1.148438 4.855469 -0.632812 C 4.398438 -0.117188 3.78125 0.140625 3.007812 0.140625 C 2.234375 0.140625 1.621094 -0.117188 1.164062 -0.632812 C 0.707031 -1.148438 0.476562 -1.847656 0.476562 -2.730469 Z "/>
</g>
<g id="glyph-0-11">
<path d="M 3.863281 -4.691406 L 3.863281 -7.597656 L 5.289062 -7.597656 L 5.289062 0 L 3.863281 0 L 3.863281 -0.8125 C 3.710938 -0.496094 3.511719 -0.257812 3.269531 -0.0976562 C 3.027344 0.0625 2.742188 0.140625 2.414062 0.140625 C 1.789062 0.140625 1.300781 -0.109375 0.957031 -0.609375 C 0.613281 -1.109375 0.4375 -1.816406 0.4375 -2.730469 C 0.4375 -3.65625 0.613281 -4.363281 0.964844 -4.859375 C 1.3125 -5.351562 1.8125 -5.601562 2.460938 -5.601562 C 2.753906 -5.601562 3.015625 -5.523438 3.25 -5.375 C 3.484375 -5.222656 3.6875 -4.996094 3.863281 -4.691406 Z M 1.871094 -2.71875 C 1.871094 -2.191406 1.957031 -1.777344 2.132812 -1.480469 C 2.308594 -1.179688 2.550781 -1.03125 2.859375 -1.03125 C 3.171875 -1.03125 3.414062 -1.179688 3.59375 -1.480469 C 3.773438 -1.78125 3.863281 -2.191406 3.863281 -2.71875 C 3.863281 -3.246094 3.773438 -3.660156 3.59375 -3.960938 C 3.414062 -4.257812 3.171875 -4.410156 2.859375 -4.410156 C 2.550781 -4.410156 2.308594 -4.257812 2.132812 -3.960938 C 1.957031 -3.660156 1.871094 -3.246094 1.871094 -2.71875 Z "/>
</g>
<g id="glyph-0-12">
<path d="M 1.078125 -5.46875 L 3.910156 -5.46875 L 3.910156 -1.097656 L 5.6875 -1.097656 L 5.6875 0 L 0.699219 0 L 0.699219 -1.097656 L 2.480469 -1.097656 L 2.480469 -4.371094 L 1.078125 -4.371094 Z M 2.480469 -8.128906 L 3.910156 -8.128906 L 3.910156 -6.460938 L 2.480469 -6.460938 Z "/>
</g>
<g id="glyph-0-13">
<path d="M 3.921875 -2.820312 C 3.921875 -3.308594 3.828125 -3.703125 3.640625 -3.996094 C 3.457031 -4.289062 3.210938 -4.4375 2.910156 -4.4375 C 2.609375 -4.4375 2.367188 -4.292969 2.183594 -4 C 2 -3.707031 1.910156 -3.3125 1.910156 -2.820312 C 1.910156 -2.328125 2 -1.933594 2.183594 -1.640625 C 2.367188 -1.347656 2.609375 -1.203125 2.910156 -1.203125 C 3.210938 -1.203125 3.457031 -1.347656 3.640625 -1.644531 C 3.828125 -1.9375 3.921875 -2.332031 3.921875 -2.820312 Z M 5.351562 -0.410156 C 5.351562 0.464844 5.152344 1.097656 4.757812 1.488281 C 4.363281 1.875 3.71875 2.070312 2.832031 2.070312 C 2.53125 2.070312 2.234375 2.046875 1.945312 2.003906 C 1.652344 1.960938 1.351562 1.894531 1.050781 1.800781 L 1.050781 0.488281 C 1.320312 0.636719 1.59375 0.75 1.875 0.820312 C 2.15625 0.890625 2.441406 0.929688 2.738281 0.929688 C 3.140625 0.929688 3.441406 0.832031 3.632812 0.640625 C 3.824219 0.453125 3.921875 0.15625 3.921875 -0.25 L 3.921875 -0.839844 C 3.78125 -0.578125 3.59375 -0.386719 3.363281 -0.257812 C 3.132812 -0.132812 2.851562 -0.0703125 2.519531 -0.0703125 C 1.894531 -0.0703125 1.398438 -0.3125 1.03125 -0.800781 C 0.664062 -1.289062 0.476562 -1.953125 0.476562 -2.789062 C 0.476562 -3.65625 0.664062 -4.339844 1.03125 -4.847656 C 1.398438 -5.355469 1.890625 -5.609375 2.507812 -5.609375 C 2.820312 -5.609375 3.101562 -5.539062 3.34375 -5.390625 C 3.589844 -5.242188 3.78125 -5.039062 3.921875 -4.769531 L 3.921875 -5.46875 L 5.351562 -5.46875 Z "/>
</g>
<g id="glyph-0-14">
<path d="M 3.007812 -5.972656 L 2.328125 -2.988281 L 3.691406 -2.988281 Z M 2.128906 -7.289062 L 3.890625 -7.289062 L 5.859375 0 L 4.417969 0 L 3.96875 -1.800781 L 2.039062 -1.800781 L 1.601562 0 L 0.160156 0 Z "/>
</g>
<g id="glyph-0-15">
<path d="M 4.839844 -5.296875 L 4.839844 -4.046875 C 4.574219 -4.21875 4.300781 -4.34375 4.015625 -4.429688 C 3.730469 -4.515625 3.445312 -4.5625 3.160156 -4.5625 C 2.839844 -4.5625 2.597656 -4.515625 2.4375 -4.421875 C 2.273438 -4.328125 2.191406 -4.191406 2.191406 -4.007812 C 2.191406 -3.75 2.539062 -3.535156 3.238281 -3.375 L 3.289062 -3.359375 L 3.703125 -3.261719 C 4.222656 -3.136719 4.605469 -2.9375 4.847656 -2.664062 C 5.089844 -2.390625 5.210938 -2.015625 5.210938 -1.546875 C 5.210938 -0.984375 5.023438 -0.5625 4.65625 -0.28125 C 4.285156 0 3.730469 0.140625 2.988281 0.140625 C 2.660156 0.140625 2.324219 0.113281 1.976562 0.0546875 C 1.632812 0 1.28125 -0.0859375 0.929688 -0.199219 L 0.929688 -1.449219 C 1.242188 -1.269531 1.566406 -1.132812 1.890625 -1.039062 C 2.21875 -0.945312 2.535156 -0.898438 2.84375 -0.898438 C 3.179688 -0.898438 3.429688 -0.945312 3.601562 -1.046875 C 3.773438 -1.144531 3.863281 -1.285156 3.863281 -1.46875 C 3.863281 -1.652344 3.800781 -1.792969 3.679688 -1.890625 C 3.558594 -1.988281 3.265625 -2.089844 2.808594 -2.203125 L 2.414062 -2.289062 C 1.867188 -2.414062 1.464844 -2.609375 1.214844 -2.871094 C 0.964844 -3.132812 0.839844 -3.488281 0.839844 -3.929688 C 0.839844 -4.457031 1.03125 -4.867188 1.410156 -5.160156 C 1.792969 -5.453125 2.328125 -5.601562 3.015625 -5.601562 C 3.328125 -5.601562 3.636719 -5.574219 3.941406 -5.523438 C 4.25 -5.472656 4.550781 -5.398438 4.839844 -5.296875 Z "/>
</g>
</g>
<image id="source-50" x="0" y="0" width="0" height="0"/>
<mask id="mask-0">
<use xlink:href="#source-50"/>
</mask>
</defs>
<g fill="rgb(34.509804%, 76.862745%, 86.666667%)" fill-opacity="1">
<use xlink:href="#glyph-0-0" x="30" y="29.282227"/>
<use xlink:href="#glyph-0-1" x="36" y="29.282227"/>
<use xlink:href="#glyph-0-2" x="42" y="29.282227"/>
<use xlink:href="#glyph-0-3" x="48" y="29.282227"/>
<use xlink:href="#glyph-0-4" x="54" y="29.282227"/>
<use xlink:href="#glyph-0-5" x="60" y="29.282227"/>
<use xlink:href="#glyph-0-6" x="66" y="29.282227"/>
<use xlink:href="#glyph-0-7" x="72" y="29.282227"/>
<use xlink:href="#glyph-0-8" x="78" y="29.282227"/>
<use xlink:href="#glyph-0-9" x="84" y="29.282227"/>
<use xlink:href="#glyph-0-10" x="90" y="29.282227"/>
<use xlink:href="#glyph-0-11" x="96" y="29.282227"/>
<use xlink:href="#glyph-0-12" x="102" y="29.282227"/>
<use xlink:href="#glyph-0-5" x="108" y="29.282227"/>
<use xlink:href="#glyph-0-13" x="114" y="29.282227"/>
<use xlink:href="#glyph-0-8" x="120" y="29.282227"/>
<use xlink:href="#glyph-0-14" x="126" y="29.282227"/>
<use xlink:href="#glyph-0-13" x="132" y="29.282227"/>
<use xlink:href="#glyph-0-3" x="138" y="29.282227"/>
<use xlink:href="#glyph-0-5" x="144" y="29.282227"/>
<use xlink:href="#glyph-0-2" x="150" y="29.282227"/>
<use xlink:href="#glyph-0-15" x="156" y="29.282227"/>
</g>
</svg>
