<?xml version="1.0" encoding="UTF-8"?>
<svg xmlns="http://www.w3.org/2000/svg" xmlns:xlink="http://www.w3.org/1999/xlink" width="854" height="480" viewBox="0 0 854 480">
<defs>
<g>
<g id="glyph-0-0">
<path d="M 1.867188 0 L 1.144531 0 L 1.144531 -3.015625 L 0.21875 -3.015625 L 0.21875 -3.644531 L 2.789062 -3.644531 L 2.789062 -3.015625 L 1.867188 -3.015625 Z "/>
</g>
<g id="glyph-0-1">
<path d="M 0.539062 -2.734375 L 1.957031 -2.734375 L 1.957031 -0.550781 L 2.84375 -0.550781 L 2.84375 0 L 0.347656 0 L 0.347656 -0.550781 L 1.242188 -0.550781 L 1.242188 -2.183594 L 0.539062 -2.183594 Z M 1.242188 -4.066406 L 1.957031 -4.066406 L 1.957031 -3.230469 L 1.242188 -3.230469 Z "/>
</g>
<g id="glyph-0-2">
<path d="M 2.589844 -0.140625 C 2.46875 -0.0703125 2.339844 -0.015625 2.203125 0.0195312 C 2.0625 0.0546875 1.914062 0.0703125 1.753906 0.0703125 C 1.332031 0.0703125 1.003906 -0.0546875 0.765625 -0.308594 C 0.527344 -0.5625 0.410156 -0.914062 0.410156 -1.363281 C 0.410156 -1.816406 0.53125 -2.167969 0.769531 -2.421875 C 1.007812 -2.675781 1.339844 -2.804688 1.761719 -2.804688 C 1.90625 -2.804688 2.046875 -2.789062 2.183594 -2.753906 C 2.320312 -2.71875 2.457031 -2.667969 2.589844 -2.59375 L 2.589844 -1.941406 C 2.484375 -2.03125 2.371094 -2.097656 2.246094 -2.148438 C 2.121094 -2.195312 1.992188 -2.21875 1.859375 -2.21875 C 1.628906 -2.21875 1.449219 -2.144531 1.324219 -1.996094 C 1.199219 -1.847656 1.136719 -1.636719 1.136719 -1.363281 C 1.136719 -1.089844 1.199219 -0.882812 1.324219 -0.734375 C 1.449219 -0.589844 1.628906 -0.515625 1.859375 -0.515625 C 2 -0.515625 2.128906 -0.539062 2.25 -0.585938 C 2.371094 -0.632812 2.484375 -0.703125 2.589844 -0.796875 Z "/>
</g>
<g id="glyph-0-3">
<path d="M 0.425781 -3.796875 L 1.140625 -3.796875 L 1.140625 -1.804688 L 2 -2.734375 L 2.867188 -2.734375 L 1.832031 -1.714844 L 2.925781 0 L 2.132812 0 L 1.382812 -1.28125 L 1.140625 -1.046875 L 1.140625 0 L 0.425781 0 Z "/>
</g>
<g id="glyph-0-4">
<path d="M 2.691406 -0.132812 C 2.523438 -0.0664062 2.355469 -0.015625 2.183594 0.0195312 C 2.011719 0.0546875 1.828125 0.0703125 1.636719 0.0703125 C 1.179688 0.0703125 0.828125 -0.0507812 0.585938 -0.296875 C 0.34375 -0.542969 0.226562 -0.894531 0.226562 -1.355469 C 0.226562 -1.800781 0.339844 -2.152344 0.574219 -2.414062 C 0.804688 -2.671875 1.125 -2.800781 1.527344 -2.800781 C 1.929688 -2.800781 2.246094 -2.679688 2.46875 -2.441406 C 2.691406 -2.199219 2.804688 -1.863281 2.804688 -1.425781 L 2.804688 -1.136719 L 0.953125 -1.136719 C 0.953125 -0.921875 1.015625 -0.761719 1.140625 -0.65625 C 1.265625 -0.550781 1.453125 -0.496094 1.703125 -0.496094 C 1.867188 -0.496094 2.03125 -0.519531 2.191406 -0.566406 C 2.351562 -0.613281 2.515625 -0.6875 2.691406 -0.789062 Z M 2.085938 -1.671875 C 2.082031 -1.859375 2.035156 -2.003906 1.941406 -2.101562 C 1.847656 -2.199219 1.707031 -2.246094 1.527344 -2.246094 C 1.363281 -2.246094 1.230469 -2.195312 1.132812 -2.097656 C 1.035156 -1.996094 0.976562 -1.855469 0.960938 -1.671875 Z "/>
</g>
<g id="glyph-0-5">
<path d="M 1.683594 -3.511719 L 1.683594 -2.734375 L 2.621094 -2.734375 L 2.621094 -2.183594 L 1.683594 -2.183594 L 1.683594 -0.890625 C 1.683594 -0.769531 1.714844 -0.679688 1.773438 -0.628906 C 1.832031 -0.574219 1.933594 -0.550781 2.070312 -0.550781 L 2.621094 -0.550781 L 2.621094 0 L 2.019531 0 C 1.609375 0 1.332031 -0.0664062 1.1875 -0.195312 C 1.042969 -0.328125 0.96875 -0.570312 0.96875 -0.925781 L 0.96875 -2.183594 L 0.269531 -2.183594 L 0.269531 -2.734375 L 0.96875 -2.734375 L 0.96875 -3.511719 Z "/>
</g>
</g>
</defs>
<g fill="rgb(0%, 96.078431%, 100%)" fill-opacity="1">
<use xlink:href="#glyph-0-0" x="30" y="24.641602"/>
<use xlink:href="#glyph-0-1" x="33" y="24.641602"/>
<use xlink:href="#glyph-0-2" x="36" y="24.641602"/>
<use xlink:href="#glyph-0-3" x="39" y="24.641602"/>
<use xlink:href="#glyph-0-4" x="42" y="24.641602"/>
<use xlink:href="#glyph-0-5" x="45" y="24.641602"/>
</g>
</svg>
