<?xml version="1.0" encoding="UTF-8"?>
<svg xmlns="http://www.w3.org/2000/svg" xmlns:xlink="http://www.w3.org/1999/xlink" width="854" height="480" viewBox="0 0 854 480">
<defs>
<g>
<g id="glyph-0-0">
<path d="M 2.640625 -0.105469 C 2.527344 -0.046875 2.40625 -0.00390625 2.28125 0.0273438 C 2.15625 0.0546875 2.023438 0.0703125 1.882812 0.0703125 C 1.390625 0.0703125 1.019531 -0.0898438 0.757812 -0.414062 C 0.5 -0.738281 0.371094 -1.207031 0.371094 -1.820312 C 0.371094 -2.433594 0.5 -2.902344 0.757812 -3.226562 C 1.015625 -3.550781 1.394531 -3.710938 1.882812 -3.710938 C 2.023438 -3.710938 2.15625 -3.695312 2.28125 -3.667969 C 2.410156 -3.636719 2.527344 -3.59375 2.640625 -3.535156 L 2.640625 -2.734375 C 2.515625 -2.847656 2.394531 -2.933594 2.277344 -2.984375 C 2.164062 -3.039062 2.042969 -3.0625 1.917969 -3.0625 C 1.65625 -3.0625 1.457031 -2.960938 1.320312 -2.75 C 1.1875 -2.539062 1.121094 -2.230469 1.121094 -1.820312 C 1.121094 -1.410156 1.1875 -1.097656 1.320312 -0.890625 C 1.457031 -0.679688 1.65625 -0.578125 1.917969 -0.578125 C 2.042969 -0.578125 2.164062 -0.601562 2.277344 -0.65625 C 2.394531 -0.707031 2.515625 -0.792969 2.640625 -0.90625 Z "/>
</g>
<g id="glyph-0-1">
<path d="M 1.503906 -2.21875 C 1.332031 -2.21875 1.199219 -2.144531 1.101562 -1.992188 C 1.003906 -1.84375 0.953125 -1.632812 0.953125 -1.363281 C 0.953125 -1.09375 1.003906 -0.886719 1.101562 -0.734375 C 1.199219 -0.585938 1.332031 -0.511719 1.503906 -0.511719 C 1.675781 -0.511719 1.8125 -0.585938 1.910156 -0.734375 C 2.007812 -0.886719 2.054688 -1.097656 2.054688 -1.363281 C 2.054688 -1.632812 2.007812 -1.84375 1.910156 -1.992188 C 1.8125 -2.144531 1.675781 -2.21875 1.503906 -2.21875 Z M 0.238281 -1.363281 C 0.238281 -1.804688 0.355469 -2.15625 0.582031 -2.414062 C 0.8125 -2.671875 1.117188 -2.800781 1.503906 -2.800781 C 1.890625 -2.800781 2.199219 -2.671875 2.429688 -2.414062 C 2.65625 -2.15625 2.769531 -1.804688 2.769531 -1.363281 C 2.769531 -0.921875 2.65625 -0.574219 2.429688 -0.316406 C 2.199219 -0.0585938 1.890625 0.0703125 1.503906 0.0703125 C 1.117188 0.0703125 0.8125 -0.0585938 0.582031 -0.316406 C 0.351562 -0.574219 0.238281 -0.921875 0.238281 -1.363281 Z "/>
</g>
<g id="glyph-0-2">
<path d="M 1.929688 -2.347656 L 1.929688 -3.796875 L 2.644531 -3.796875 L 2.644531 0 L 1.929688 0 L 1.929688 -0.40625 C 1.855469 -0.246094 1.753906 -0.128906 1.632812 -0.046875 C 1.511719 0.03125 1.371094 0.0703125 1.207031 0.0703125 C 0.894531 0.0703125 0.652344 -0.0546875 0.476562 -0.304688 C 0.304688 -0.554688 0.21875 -0.910156 0.21875 -1.363281 C 0.21875 -1.828125 0.308594 -2.183594 0.480469 -2.429688 C 0.65625 -2.675781 0.90625 -2.800781 1.230469 -2.800781 C 1.375 -2.800781 1.507812 -2.761719 1.625 -2.6875 C 1.742188 -2.609375 1.84375 -2.496094 1.929688 -2.347656 Z M 0.933594 -1.359375 C 0.933594 -1.097656 0.980469 -0.890625 1.066406 -0.738281 C 1.15625 -0.589844 1.277344 -0.515625 1.429688 -0.515625 C 1.585938 -0.515625 1.707031 -0.589844 1.796875 -0.738281 C 1.886719 -0.890625 1.929688 -1.097656 1.929688 -1.359375 C 1.929688 -1.625 1.886719 -1.832031 1.796875 -1.980469 C 1.707031 -2.128906 1.585938 -2.203125 1.429688 -2.203125 C 1.277344 -2.203125 1.15625 -2.128906 1.066406 -1.980469 C 0.980469 -1.832031 0.933594 -1.625 0.933594 -1.359375 Z "/>
</g>
<g id="glyph-0-3">
<path d="M 2.691406 -0.132812 C 2.523438 -0.0664062 2.355469 -0.015625 2.183594 0.0195312 C 2.011719 0.0546875 1.828125 0.0703125 1.636719 0.0703125 C 1.179688 0.0703125 0.828125 -0.0507812 0.585938 -0.296875 C 0.34375 -0.542969 0.226562 -0.894531 0.226562 -1.355469 C 0.226562 -1.800781 0.339844 -2.152344 0.574219 -2.414062 C 0.804688 -2.671875 1.125 -2.800781 1.527344 -2.800781 C 1.929688 -2.800781 2.246094 -2.679688 2.46875 -2.441406 C 2.691406 -2.199219 2.804688 -1.863281 2.804688 -1.425781 L 2.804688 -1.136719 L 0.953125 -1.136719 C 0.953125 -0.921875 1.015625 -0.761719 1.140625 -0.65625 C 1.265625 -0.550781 1.453125 -0.496094 1.703125 -0.496094 C 1.867188 -0.496094 2.03125 -0.519531 2.191406 -0.566406 C 2.351562 -0.613281 2.515625 -0.6875 2.691406 -0.789062 Z M 2.085938 -1.671875 C 2.082031 -1.859375 2.035156 -2.003906 1.941406 -2.101562 C 1.847656 -2.199219 1.707031 -2.246094 1.527344 -2.246094 C 1.363281 -2.246094 1.230469 -2.195312 1.132812 -2.097656 C 1.035156 -1.996094 0.976562 -1.855469 0.960938 -1.671875 Z "/>
</g>
<g id="glyph-0-4">
<rect x="0" y="0" width="0" height="0" mask="url(#mask-0)"/>
</g>
<g id="glyph-0-5">
<path d="M 1.054688 -2.996094 L 1.054688 -0.648438 L 1.25 -0.648438 C 1.53125 -0.648438 1.734375 -0.738281 1.855469 -0.917969 C 1.976562 -1.09375 2.035156 -1.398438 2.035156 -1.828125 C 2.035156 -2.25 1.976562 -2.550781 1.855469 -2.730469 C 1.734375 -2.90625 1.53125 -2.996094 1.25 -2.996094 Z M 0.335938 -3.644531 L 1.105469 -3.644531 C 1.703125 -3.644531 2.128906 -3.503906 2.390625 -3.21875 C 2.652344 -2.933594 2.785156 -2.46875 2.785156 -1.828125 C 2.785156 -1.179688 2.65625 -0.714844 2.390625 -0.429688 C 2.128906 -0.144531 1.703125 0 1.105469 0 L 0.335938 0 Z "/>
</g>
<g id="glyph-0-6">
<path d="M 0.539062 -2.734375 L 1.957031 -2.734375 L 1.957031 -0.550781 L 2.84375 -0.550781 L 2.84375 0 L 0.347656 0 L 0.347656 -0.550781 L 1.242188 -0.550781 L 1.242188 -2.183594 L 0.539062 -2.183594 Z M 1.242188 -4.066406 L 1.957031 -4.066406 L 1.957031 -3.230469 L 1.242188 -3.230469 Z "/>
</g>
<g id="glyph-0-7">
<path d="M 1.804688 -2.972656 L 1.804688 -2.734375 L 2.644531 -2.734375 L 2.644531 -2.183594 L 1.804688 -2.183594 L 1.804688 0 L 1.089844 0 L 1.089844 -2.183594 L 0.425781 -2.183594 L 0.425781 -2.734375 L 1.089844 -2.734375 L 1.089844 -2.925781 C 1.089844 -3.253906 1.15625 -3.480469 1.292969 -3.609375 C 1.429688 -3.734375 1.683594 -3.796875 2.054688 -3.796875 L 2.644531 -3.796875 L 2.644531 -3.25 L 2.085938 -3.25 C 1.976562 -3.25 1.90625 -3.230469 1.867188 -3.191406 C 1.828125 -3.152344 1.808594 -3.078125 1.804688 -2.972656 Z "/>
</g>
</g>
<image id="source-43" x="0" y="0" width="0" height="0"/>
<mask id="mask-0">
<use xlink:href="#source-43"/>
</mask>
</defs>
<g fill="rgb(22.352941%, 100%, 7.843137%)" fill-opacity="1">
<use xlink:href="#glyph-0-0" x="30" y="24.641602"/>
<use xlink:href="#glyph-0-1" x="33" y="24.641602"/>
<use xlink:href="#glyph-0-2" x="36" y="24.641602"/>
<use xlink:href="#glyph-0-3" x="39" y="24.641602"/>
<use xlink:href="#glyph-0-4" x="42" y="24.641602"/>
<use xlink:href="#glyph-0-5" x="45" y="24.641602"/>
<use xlink:href="#glyph-0-6" x="48" y="24.641602"/>
<use xlink:href="#glyph-0-7" x="51" y="24.641602"/>
<use xlink:href="#glyph-0-7" x="54" y="24.641602"/>
</g>
</svg>
