<?xml version="1.0" encoding="UTF-8"?>
<svg xmlns="http://www.w3.org/2000/svg" xmlns:xlink="http://www.w3.org/1999/xlink" width="854" height="480" viewBox="0 0 854 480">
<defs>
<g>
<g id="glyph-0-0">
<path d="M 1.78125 0.0625 C 1.753906 0.0664062 1.734375 0.0703125 1.714844 0.0742188 C 1.699219 0.078125 1.683594 0.078125 1.664062 0.078125 C 1.199219 0.078125 0.847656 -0.0976562 0.609375 -0.453125 C 0.371094 -0.808594 0.25 -1.332031 0.25 -2.019531 C 0.25 -2.714844 0.371094 -3.238281 0.609375 -3.589844 C 0.847656 -3.945312 1.203125 -4.125 1.671875 -4.125 C 2.140625 -4.125 2.496094 -3.945312 2.734375 -3.589844 C 2.976562 -3.238281 3.09375 -2.714844 3.09375 -2.019531 C 3.09375 -1.542969 3.039062 -1.148438 2.925781 -0.824219 C 2.8125 -0.503906 2.644531 -0.277344 2.429688 -0.136719 L 2.933594 0.355469 L 2.382812 0.761719 Z M 1.671875 -3.40625 C 1.46875 -3.40625 1.316406 -3.296875 1.222656 -3.078125 C 1.128906 -2.859375 1.082031 -2.507812 1.082031 -2.019531 C 1.082031 -1.535156 1.128906 -1.183594 1.222656 -0.96875 C 1.316406 -0.75 1.464844 -0.640625 1.671875 -0.640625 C 1.878906 -0.640625 2.027344 -0.75 2.121094 -0.96875 C 2.214844 -1.1875 2.261719 -1.535156 2.261719 -2.019531 C 2.261719 -2.507812 2.214844 -2.859375 2.121094 -3.078125 C 2.027344 -3.296875 1.878906 -3.40625 1.671875 -3.40625 Z "/>
</g>
<g id="glyph-0-1">
<path d="M 1.671875 -3.316406 L 1.292969 -1.660156 L 2.050781 -1.660156 Z M 1.183594 -4.050781 L 2.160156 -4.050781 L 3.253906 0 L 2.453125 0 L 2.207031 -1 L 1.132812 -1 L 0.890625 0 L 0.0898438 0 Z "/>
</g>
<g id="glyph-0-2">
<rect x="0" y="0" width="0" height="0" mask="url(#mask-0)"/>
</g>
<g id="glyph-0-3">
<path d="M 2.1875 -1.914062 C 2.269531 -1.898438 2.339844 -1.859375 2.398438 -1.800781 C 2.457031 -1.742188 2.527344 -1.625 2.613281 -1.457031 L 3.34375 0 L 2.464844 0 L 1.976562 -1.023438 C 1.960938 -1.050781 1.945312 -1.089844 1.921875 -1.140625 C 1.777344 -1.445312 1.609375 -1.601562 1.417969 -1.601562 L 1.160156 -1.601562 L 1.160156 0 L 0.359375 0 L 0.359375 -4.050781 L 1.515625 -4.050781 C 2.035156 -4.050781 2.410156 -3.957031 2.636719 -3.773438 C 2.863281 -3.589844 2.980469 -3.289062 2.980469 -2.871094 C 2.980469 -2.59375 2.910156 -2.371094 2.773438 -2.207031 C 2.640625 -2.042969 2.445312 -1.945312 2.1875 -1.914062 Z M 1.160156 -3.378906 L 1.160156 -2.273438 L 1.539062 -2.273438 C 1.757812 -2.273438 1.914062 -2.316406 2.007812 -2.402344 C 2.101562 -2.488281 2.152344 -2.628906 2.152344 -2.828125 C 2.152344 -3.023438 2.105469 -3.164062 2.011719 -3.25 C 1.917969 -3.335938 1.757812 -3.378906 1.539062 -3.378906 Z "/>
</g>
<g id="glyph-0-4">
<path d="M 2.988281 -0.148438 C 2.804688 -0.0742188 2.617188 -0.015625 2.425781 0.0234375 C 2.234375 0.0585938 2.03125 0.078125 1.816406 0.078125 C 1.308594 0.078125 0.921875 -0.0585938 0.652344 -0.328125 C 0.382812 -0.601562 0.25 -0.992188 0.25 -1.503906 C 0.25 -2 0.378906 -2.394531 0.636719 -2.679688 C 0.894531 -2.96875 1.25 -3.113281 1.695312 -3.113281 C 2.144531 -3.113281 2.496094 -2.976562 2.742188 -2.710938 C 2.992188 -2.445312 3.117188 -2.070312 3.117188 -1.585938 L 3.117188 -1.261719 L 1.058594 -1.261719 C 1.058594 -1.023438 1.128906 -0.84375 1.269531 -0.726562 C 1.410156 -0.609375 1.617188 -0.550781 1.894531 -0.550781 C 2.078125 -0.550781 2.257812 -0.578125 2.433594 -0.628906 C 2.609375 -0.683594 2.796875 -0.765625 2.988281 -0.878906 Z M 2.316406 -1.859375 C 2.3125 -2.070312 2.257812 -2.226562 2.15625 -2.335938 C 2.050781 -2.441406 1.898438 -2.496094 1.695312 -2.496094 C 1.511719 -2.496094 1.367188 -2.441406 1.257812 -2.328125 C 1.148438 -2.21875 1.085938 -2.058594 1.066406 -1.855469 Z "/>
</g>
<g id="glyph-0-5">
<path d="M 3.128906 -3.039062 L 2.160156 0 L 1.183594 0 L 0.21875 -3.039062 L 1.023438 -3.039062 L 1.671875 -0.667969 L 2.320312 -3.039062 Z "/>
</g>
<g id="glyph-0-6">
<path d="M 0.597656 -3.039062 L 2.171875 -3.039062 L 2.171875 -0.609375 L 3.160156 -0.609375 L 3.160156 0 L 0.386719 0 L 0.386719 -0.609375 L 1.378906 -0.609375 L 1.378906 -2.429688 L 0.597656 -2.429688 Z M 1.378906 -4.515625 L 2.171875 -4.515625 L 2.171875 -3.589844 L 1.378906 -3.589844 Z "/>
</g>
<g id="glyph-0-7">
<path d="M 0 -3.039062 L 0.660156 -3.039062 L 1.023438 -0.710938 L 1.351562 -2.242188 L 1.992188 -2.242188 L 2.316406 -0.710938 L 2.683594 -3.039062 L 3.34375 -3.039062 L 2.792969 0 L 2.039062 0 L 1.671875 -1.578125 L 1.304688 0 L 0.550781 0 Z "/>
</g>
</g>
<image id="source-196" x="0" y="0" width="0" height="0"/>
<mask id="mask-0">
<use xlink:href="#source-196"/>
</mask>
</defs>
<g fill="rgb(68.627451%, 37.254902%, 100%)" fill-opacity="1">
<use xlink:href="#glyph-0-0" x="30" y="25.157227"/>
<use xlink:href="#glyph-0-1" x="33" y="25.157227"/>
<use xlink:href="#glyph-0-2" x="36" y="25.157227"/>
<use xlink:href="#glyph-0-3" x="39" y="25.157227"/>
<use xlink:href="#glyph-0-4" x="42" y="25.157227"/>
<use xlink:href="#glyph-0-5" x="45" y="25.157227"/>
<use xlink:href="#glyph-0-6" x="48" y="25.157227"/>
<use xlink:href="#glyph-0-4" x="51" y="25.157227"/>
<use xlink:href="#glyph-0-7" x="54" y="25.157227"/>
</g>
</svg>
