<?xml version="1.0" encoding="UTF-8"?>
<svg xmlns="http://www.w3.org/2000/svg" xmlns:xlink="http://www.w3.org/1999/xlink" width="854" height="480" viewBox="0 0 854 480">
<defs>
<g>
<g id="glyph-0-0">
<rect x="0" y="0" width="0" height="0" mask="url(#mask-0)"/>
</g>
<g id="glyph-0-1">
<path d="M 1.484375 -3.179688 L 1.289062 -2.410156 L 1.820312 -2.410156 L 2.019531 -3.179688 L 2.367188 -3.179688 L 2.167969 -2.410156 L 2.699219 -2.410156 L 2.699219 -2.078125 L 2.085938 -2.078125 L 1.875 -1.226562 L 2.417969 -1.226562 L 2.417969 -0.894531 L 1.789062 -0.894531 L 1.566406 0 L 1.21875 0 L 1.445312 -0.894531 L 0.910156 -0.894531 L 0.683594 0 L 0.339844 0 L 0.5625 -0.894531 L 0.00390625 -0.894531 L 0.00390625 -1.226562 L 0.648438 -1.226562 L 0.863281 -2.078125 L 0.285156 -2.078125 L 0.285156 -2.410156 L 0.941406 -2.410156 L 1.136719 -3.179688 Z M 1.742188 -2.078125 L 1.207031 -2.078125 L 0.996094 -1.226562 L 1.53125 -1.226562 Z "/>
</g>
<g id="glyph-0-2">
<path d="M 1.335938 -2.855469 L 0.875 -1.195312 L 1.800781 -1.195312 Z M 1.070312 -3.238281 L 1.605469 -3.238281 L 2.59375 0 L 2.140625 0 L 1.902344 -0.84375 L 0.769531 -0.84375 L 0.535156 0 L 0.0820312 0 Z "/>
</g>
<g id="glyph-0-3">
<path d="M 0.8125 -0.304688 L 0.8125 0.925781 L 0.414062 0.925781 L 0.414062 -2.429688 L 0.8125 -2.429688 L 0.8125 -2.121094 C 0.878906 -2.242188 0.96875 -2.332031 1.078125 -2.394531 C 1.191406 -2.457031 1.316406 -2.488281 1.460938 -2.488281 C 1.753906 -2.488281 1.988281 -2.375 2.152344 -2.148438 C 2.320312 -1.921875 2.40625 -1.605469 2.40625 -1.203125 C 2.40625 -0.808594 2.320312 -0.5 2.152344 -0.273438 C 1.984375 -0.0507812 1.753906 0.0625 1.460938 0.0625 C 1.316406 0.0625 1.1875 0.03125 1.074219 -0.03125 C 0.964844 -0.09375 0.878906 -0.1875 0.8125 -0.304688 Z M 1.984375 -1.214844 C 1.984375 -1.523438 1.9375 -1.757812 1.839844 -1.914062 C 1.742188 -2.070312 1.597656 -2.152344 1.402344 -2.152344 C 1.210938 -2.152344 1.0625 -2.070312 0.964844 -1.914062 C 0.863281 -1.753906 0.8125 -1.519531 0.8125 -1.214844 C 0.8125 -0.90625 0.863281 -0.671875 0.964844 -0.515625 C 1.0625 -0.355469 1.210938 -0.277344 1.402344 -0.277344 C 1.597656 -0.277344 1.742188 -0.355469 1.839844 -0.511719 C 1.9375 -0.667969 1.984375 -0.902344 1.984375 -1.214844 Z "/>
</g>
<g id="glyph-0-4">
<path d="M 1.558594 -0.878906 C 1.558594 -0.699219 1.59375 -0.5625 1.660156 -0.472656 C 1.726562 -0.382812 1.820312 -0.335938 1.949219 -0.335938 L 2.417969 -0.335938 L 2.417969 0 L 1.910156 0 C 1.671875 0 1.488281 -0.078125 1.355469 -0.230469 C 1.226562 -0.382812 1.160156 -0.597656 1.160156 -0.878906 L 1.160156 -3.078125 L 0.519531 -3.078125 L 0.519531 -3.390625 L 1.558594 -3.390625 Z "/>
</g>
<g id="glyph-0-5">
<path d="M 1.863281 -0.78125 C 1.796875 -0.613281 1.710938 -0.390625 1.609375 -0.113281 C 1.464844 0.269531 1.367188 0.503906 1.320312 0.585938 C 1.253906 0.699219 1.167969 0.785156 1.070312 0.839844 C 0.96875 0.894531 0.855469 0.925781 0.71875 0.925781 L 0.398438 0.925781 L 0.398438 0.589844 L 0.636719 0.589844 C 0.753906 0.589844 0.84375 0.554688 0.910156 0.488281 C 0.976562 0.421875 1.0625 0.246094 1.164062 -0.0390625 L 0.226562 -2.429688 L 0.648438 -2.429688 L 1.371094 -0.53125 L 2.078125 -2.429688 L 2.503906 -2.429688 Z "/>
</g>
<g id="glyph-0-6">
<path d="M 1.332031 -3.121094 L 1.332031 -2.429688 L 2.238281 -2.429688 L 2.238281 -2.121094 L 1.332031 -2.121094 L 1.332031 -0.800781 C 1.332031 -0.621094 1.367188 -0.496094 1.433594 -0.425781 C 1.503906 -0.355469 1.621094 -0.320312 1.789062 -0.320312 L 2.238281 -0.320312 L 2.238281 0 L 1.75 0 C 1.453125 0 1.242188 -0.0585938 1.117188 -0.179688 C 0.996094 -0.300781 0.933594 -0.507812 0.933594 -0.800781 L 0.933594 -2.121094 L 0.285156 -2.121094 L 0.285156 -2.429688 L 0.933594 -2.429688 L 0.933594 -3.121094 Z "/>
</g>
<g id="glyph-0-7">
<path d="M 2.28125 -1.507812 L 2.28125 0 L 1.878906 0 L 1.878906 -1.507812 C 1.878906 -1.726562 1.839844 -1.886719 1.765625 -1.988281 C 1.6875 -2.089844 1.566406 -2.140625 1.402344 -2.140625 C 1.21875 -2.140625 1.074219 -2.074219 0.972656 -1.941406 C 0.871094 -1.808594 0.824219 -1.621094 0.824219 -1.375 L 0.824219 0 L 0.421875 0 L 0.421875 -3.375 L 0.824219 -3.375 L 0.824219 -2.066406 C 0.894531 -2.203125 0.988281 -2.308594 1.109375 -2.382812 C 1.230469 -2.453125 1.375 -2.488281 1.542969 -2.488281 C 1.789062 -2.488281 1.976562 -2.40625 2.097656 -2.246094 C 2.21875 -2.082031 2.28125 -1.835938 2.28125 -1.507812 Z "/>
</g>
<g id="glyph-0-8">
<path d="M 2.429688 -1.414062 L 2.429688 -1.21875 L 0.699219 -1.21875 L 0.699219 -1.207031 C 0.6875 -0.875 0.753906 -0.636719 0.890625 -0.492188 C 1.027344 -0.347656 1.222656 -0.277344 1.476562 -0.277344 C 1.601562 -0.277344 1.734375 -0.296875 1.875 -0.335938 C 2.015625 -0.375 2.164062 -0.4375 2.320312 -0.519531 L 2.320312 -0.125 C 2.167969 -0.0625 2.019531 -0.015625 1.878906 0.015625 C 1.738281 0.046875 1.601562 0.0625 1.472656 0.0625 C 1.09375 0.0625 0.796875 -0.0507812 0.585938 -0.277344 C 0.375 -0.503906 0.265625 -0.816406 0.265625 -1.214844 C 0.265625 -1.601562 0.371094 -1.910156 0.578125 -2.140625 C 0.789062 -2.371094 1.066406 -2.488281 1.414062 -2.488281 C 1.722656 -2.488281 1.964844 -2.382812 2.144531 -2.175781 C 2.324219 -1.964844 2.417969 -1.710938 2.429688 -1.414062 Z M 2.03125 -1.53125 C 2.015625 -1.699219 1.953125 -1.84375 1.847656 -1.96875 C 1.742188 -2.089844 1.59375 -2.152344 1.394531 -2.152344 C 1.203125 -2.152344 1.042969 -2.085938 0.921875 -1.960938 C 0.796875 -1.832031 0.726562 -1.6875 0.714844 -1.53125 Z "/>
</g>
<g id="glyph-0-9">
<path d="M 2.308594 -3.375 L 2.308594 -3.042969 L 1.851562 -3.042969 C 1.710938 -3.042969 1.609375 -3.015625 1.554688 -2.957031 C 1.5 -2.898438 1.472656 -2.792969 1.472656 -2.644531 L 1.472656 -2.429688 L 2.308594 -2.429688 L 2.308594 -2.121094 L 1.472656 -2.121094 L 1.472656 0 L 1.070312 0 L 1.070312 -2.121094 L 0.421875 -2.121094 L 0.421875 -2.429688 L 1.070312 -2.429688 L 1.070312 -2.601562 C 1.070312 -2.867188 1.132812 -3.0625 1.253906 -3.1875 C 1.378906 -3.3125 1.566406 -3.375 1.828125 -3.375 Z "/>
</g>
<g id="glyph-0-10">
<path d="M 0.6875 -2.421875 L 1.707031 -2.421875 L 1.707031 -0.308594 L 2.5 -0.308594 L 2.5 0 L 0.515625 0 L 0.515625 -0.308594 L 1.308594 -0.308594 L 1.308594 -2.113281 L 0.6875 -2.113281 Z M 1.308594 -3.367188 L 1.707031 -3.367188 L 1.707031 -2.863281 L 1.308594 -2.863281 Z "/>
</g>
<g id="glyph-0-11">
<path d="M 2.425781 -2.429688 L 1.554688 -1.265625 L 2.511719 0 L 2.046875 0 L 1.335938 -0.972656 L 0.628906 0 L 0.164062 0 L 1.121094 -1.265625 L 0.25 -2.429688 L 0.691406 -2.429688 L 1.335938 -1.550781 L 1.976562 -2.429688 Z "/>
</g>
</g>
<image id="source-384" x="0" y="0" width="0" height="0"/>
<mask id="mask-0">
<use xlink:href="#source-384"/>
</mask>
</defs>
<g fill="rgb(91.764706%, 91.764706%, 91.764706%)" fill-opacity="1">
<use xlink:href="#glyph-0-0" x="30" y="24.125"/>
<use xlink:href="#glyph-0-0" x="33" y="24.125"/>
<use xlink:href="#glyph-0-1" x="36" y="24.125"/>
<use xlink:href="#glyph-0-0" x="39" y="24.125"/>
<use xlink:href="#glyph-0-2" x="42" y="24.125"/>
<use xlink:href="#glyph-0-3" x="45" y="24.125"/>
<use xlink:href="#glyph-0-3" x="48" y="24.125"/>
<use xlink:href="#glyph-0-4" x="51" y="24.125"/>
<use xlink:href="#glyph-0-5" x="54" y="24.125"/>
<use xlink:href="#glyph-0-0" x="57" y="24.125"/>
<use xlink:href="#glyph-0-6" x="60" y="24.125"/>
<use xlink:href="#glyph-0-7" x="63" y="24.125"/>
<use xlink:href="#glyph-0-8" x="66" y="24.125"/>
<use xlink:href="#glyph-0-0" x="69" y="24.125"/>
<use xlink:href="#glyph-0-9" x="72" y="24.125"/>
<use xlink:href="#glyph-0-10" x="75" y="24.125"/>
<use xlink:href="#glyph-0-11" x="78" y="24.125"/>
</g>
</svg>
