<?xml version="1.0" encoding="UTF-8"?>
<svg xmlns="http://www.w3.org/2000/svg" xmlns:xlink="http://www.w3.org/1999/xlink" width="854" height="480" viewBox="0 0 854 480">
<defs>
<g>
<g id="glyph-0-0">
<path d="M 4.558594 0 L 2.800781 0 L 2.800781 -7.371094 L 0.539062 -7.371094 L 0.539062 -8.910156 L 6.820312 -8.910156 L 6.820312 -7.371094 L 4.558594 -7.371094 Z "/>
</g>
<g id="glyph-0-1">
<path d="M 6.390625 -4.339844 L 6.390625 0 L 4.65625 0 L 4.65625 -4.070312 C 4.65625 -4.550781 4.585938 -4.894531 4.449219 -5.101562 C 4.3125 -5.308594 4.089844 -5.414062 3.777344 -5.414062 C 3.460938 -5.414062 3.210938 -5.273438 3.03125 -4.992188 C 2.851562 -4.710938 2.761719 -4.324219 2.761719 -3.824219 L 2.761719 0 L 1.027344 0 L 1.027344 -9.285156 L 2.761719 -9.285156 L 2.761719 -5.679688 C 2.886719 -6.050781 3.097656 -6.339844 3.394531 -6.542969 C 3.695312 -6.746094 4.054688 -6.84375 4.476562 -6.84375 C 5.109375 -6.84375 5.585938 -6.636719 5.910156 -6.214844 C 6.230469 -5.796875 6.390625 -5.171875 6.390625 -4.339844 Z "/>
</g>
<g id="glyph-0-2">
<path d="M 6.578125 -0.328125 C 6.171875 -0.160156 5.757812 -0.0351562 5.335938 0.046875 C 4.914062 0.132812 4.46875 0.171875 4 0.171875 C 2.882812 0.171875 2.027344 -0.125 1.433594 -0.726562 C 0.84375 -1.324219 0.550781 -2.1875 0.550781 -3.3125 C 0.550781 -4.402344 0.832031 -5.265625 1.402344 -5.894531 C 1.972656 -6.527344 2.746094 -6.84375 3.730469 -6.84375 C 4.722656 -6.84375 5.488281 -6.550781 6.035156 -5.964844 C 6.582031 -5.378906 6.855469 -4.550781 6.855469 -3.484375 L 6.855469 -2.773438 L 2.328125 -2.773438 C 2.332031 -2.25 2.488281 -1.859375 2.792969 -1.597656 C 3.097656 -1.339844 3.558594 -1.210938 4.164062 -1.210938 C 4.566406 -1.210938 4.964844 -1.269531 5.351562 -1.382812 C 5.742188 -1.5 6.152344 -1.683594 6.578125 -1.933594 Z M 5.097656 -4.089844 C 5.089844 -4.550781 4.96875 -4.898438 4.742188 -5.136719 C 4.511719 -5.371094 4.175781 -5.492188 3.730469 -5.492188 C 3.328125 -5.492188 3.007812 -5.367188 2.769531 -5.125 C 2.53125 -4.878906 2.390625 -4.53125 2.34375 -4.082031 Z "/>
</g>
<g id="glyph-0-3">
<rect x="0" y="0" width="0" height="0" mask="url(#mask-0)"/>
</g>
<g id="glyph-0-4">
<path d="M 6.636719 -7.359375 L 2.847656 -7.359375 L 2.847656 -5.4375 L 6.296875 -5.4375 L 6.296875 -3.886719 L 2.847656 -3.886719 L 2.847656 0 L 1.085938 0 L 1.085938 -8.910156 L 6.636719 -8.910156 Z "/>
</g>
<g id="glyph-0-5">
<path d="M 0.953125 -2.332031 L 0.953125 -6.683594 L 2.703125 -6.683594 L 2.703125 -2.601562 C 2.703125 -2.121094 2.769531 -1.777344 2.90625 -1.570312 C 3.042969 -1.363281 3.265625 -1.257812 3.582031 -1.257812 C 3.894531 -1.257812 4.140625 -1.398438 4.316406 -1.675781 C 4.496094 -1.957031 4.582031 -2.34375 4.582031 -2.847656 L 4.582031 -6.683594 L 6.332031 -6.683594 L 6.332031 0 L 4.582031 0 L 4.582031 -0.992188 C 4.460938 -0.621094 4.25 -0.335938 3.953125 -0.132812 C 3.65625 0.0703125 3.300781 0.171875 2.882812 0.171875 C 2.246094 0.171875 1.765625 -0.0390625 1.441406 -0.460938 C 1.117188 -0.882812 0.953125 -1.507812 0.953125 -2.332031 Z "/>
</g>
<g id="glyph-0-6">
<path d="M 2.308594 -2.785156 L 2.308594 -7.945312 L 0.539062 -7.945312 L 0.539062 -9.285156 L 4.058594 -9.285156 L 4.058594 -2.785156 C 4.058594 -2.261719 4.140625 -1.890625 4.304688 -1.671875 C 4.464844 -1.453125 4.742188 -1.34375 5.132812 -1.34375 L 6.527344 -1.34375 L 6.527344 0 L 4.644531 0 C 3.8125 0 3.214844 -0.214844 2.851562 -0.644531 C 2.492188 -1.074219 2.308594 -1.789062 2.308594 -2.785156 Z "/>
</g>
<g id="glyph-0-7">
<path d="M 2.726562 -7.429688 L 2.726562 -4.816406 L 3.449219 -4.816406 C 4.027344 -4.816406 4.429688 -4.914062 4.664062 -5.109375 C 4.898438 -5.304688 5.011719 -5.640625 5.011719 -6.125 C 5.011719 -6.605469 4.898438 -6.941406 4.664062 -7.136719 C 4.429688 -7.332031 4.027344 -7.429688 3.449219 -7.429688 Z M 0.96875 -8.910156 L 3.382812 -8.910156 C 4.613281 -8.910156 5.496094 -8.691406 6.035156 -8.253906 C 6.574219 -7.816406 6.84375 -7.105469 6.84375 -6.125 C 6.84375 -5.140625 6.574219 -4.429688 6.035156 -3.992188 C 5.496094 -3.554688 4.613281 -3.335938 3.382812 -3.335938 L 2.726562 -3.335938 L 2.726562 0 L 0.96875 0 Z "/>
</g>
<g id="glyph-0-8">
<path d="M 1.320312 -6.683594 L 4.78125 -6.683594 L 4.78125 -1.34375 L 6.953125 -1.34375 L 6.953125 0 L 0.851562 0 L 0.851562 -1.34375 L 3.03125 -1.34375 L 3.03125 -5.339844 L 1.320312 -5.339844 Z M 3.03125 -9.9375 L 4.78125 -9.9375 L 4.78125 -7.894531 L 3.03125 -7.894531 Z "/>
</g>
<g id="glyph-0-9">
<path d="M 2.636719 -0.941406 L 2.636719 2.542969 L 0.894531 2.542969 L 0.894531 -6.683594 L 2.636719 -6.683594 L 2.636719 -5.679688 C 2.820312 -6.066406 3.0625 -6.359375 3.359375 -6.554688 C 3.660156 -6.75 4.007812 -6.84375 4.410156 -6.84375 C 5.175781 -6.84375 5.765625 -6.539062 6.1875 -5.925781 C 6.609375 -5.3125 6.820312 -4.449219 6.820312 -3.335938 C 6.820312 -2.207031 6.609375 -1.339844 6.179688 -0.734375 C 5.753906 -0.128906 5.140625 0.171875 4.351562 0.171875 C 3.992188 0.171875 3.671875 0.0820312 3.386719 -0.105469 C 3.101562 -0.289062 2.851562 -0.570312 2.636719 -0.941406 Z M 5.074219 -3.347656 C 5.074219 -3.992188 4.964844 -4.496094 4.75 -4.863281 C 4.535156 -5.230469 4.238281 -5.414062 3.863281 -5.414062 C 3.484375 -5.414062 3.183594 -5.230469 2.964844 -4.863281 C 2.746094 -4.496094 2.636719 -3.992188 2.636719 -3.347656 C 2.636719 -2.703125 2.746094 -2.199219 2.964844 -1.832031 C 3.183594 -1.464844 3.484375 -1.28125 3.863281 -1.28125 C 4.238281 -1.28125 4.535156 -1.464844 4.75 -1.832031 C 4.964844 -2.199219 5.074219 -2.703125 5.074219 -3.347656 Z "/>
</g>
<g id="glyph-0-10">
<path d="M 6.390625 -4.339844 L 6.390625 0 L 4.65625 0 L 4.65625 -4.070312 C 4.65625 -4.554688 4.585938 -4.902344 4.449219 -5.113281 C 4.3125 -5.320312 4.089844 -5.425781 3.777344 -5.425781 C 3.464844 -5.425781 3.214844 -5.285156 3.035156 -5 C 2.855469 -4.71875 2.761719 -4.328125 2.761719 -3.824219 L 2.761719 0 L 1.027344 0 L 1.027344 -6.683594 L 2.761719 -6.683594 L 2.761719 -5.679688 C 2.886719 -6.050781 3.097656 -6.339844 3.394531 -6.542969 C 3.695312 -6.746094 4.054688 -6.84375 4.476562 -6.84375 C 5.109375 -6.84375 5.585938 -6.636719 5.910156 -6.214844 C 6.230469 -5.796875 6.390625 -5.171875 6.390625 -4.339844 Z "/>
</g>
</g>
<image id="source-132" x="0" y="0" width="0" height="0"/>
<mask id="mask-0">
<use xlink:href="#source-132"/>
</mask>
</defs>
<g fill="rgb(0%, 96.078431%, 100%)" fill-opacity="1">
<use xlink:href="#glyph-0-0" x="30" y="31.345703"/>
<use xlink:href="#glyph-0-1" x="37" y="31.345703"/>
<use xlink:href="#glyph-0-2" x="44" y="31.345703"/>
<use xlink:href="#glyph-0-3" x="51" y="31.345703"/>
<use xlink:href="#glyph-0-4" x="58" y="31.345703"/>
<use xlink:href="#glyph-0-5" x="65" y="31.345703"/>
<use xlink:href="#glyph-0-6" x="72" y="31.345703"/>
<use xlink:href="#glyph-0-6" x="79" y="31.345703"/>
<use xlink:href="#glyph-0-3" x="86" y="31.345703"/>
<use xlink:href="#glyph-0-7" x="93" y="31.345703"/>
<use xlink:href="#glyph-0-8" x="100" y="31.345703"/>
<use xlink:href="#glyph-0-9" x="107" y="31.345703"/>
<use xlink:href="#glyph-0-2" x="114" y="31.345703"/>
<use xlink:href="#glyph-0-6" x="121" y="31.345703"/>
<use xlink:href="#glyph-0-8" x="128" y="31.345703"/>
<use xlink:href="#glyph-0-10" x="135" y="31.345703"/>
<use xlink:href="#glyph-0-2" x="142" y="31.345703"/>
</g>
</svg>
