<?xml version="1.0" encoding="UTF-8"?>
<svg xmlns="http://www.w3.org/2000/svg" xmlns:xlink="http://www.w3.org/1999/xlink" width="854" height="480" viewBox="0 0 854 480">
<defs>
<g>
<g id="glyph-0-0">
<path d="M 2.128906 -0.660156 L 2.128906 -1.355469 L 1.636719 -1.355469 L 1.636719 -1.960938 L 2.757812 -1.960938 L 2.757812 -0.289062 C 2.621094 -0.171875 2.46875 -0.0820312 2.300781 -0.0195312 C 2.132812 0.0390625 1.957031 0.0703125 1.765625 0.0703125 C 1.292969 0.0703125 0.929688 -0.09375 0.671875 -0.421875 C 0.414062 -0.75 0.285156 -1.214844 0.285156 -1.820312 C 0.285156 -2.433594 0.414062 -2.902344 0.675781 -3.226562 C 0.933594 -3.550781 1.308594 -3.710938 1.800781 -3.710938 C 1.945312 -3.710938 2.089844 -3.691406 2.230469 -3.648438 C 2.371094 -3.605469 2.503906 -3.546875 2.628906 -3.46875 L 2.628906 -2.671875 C 2.527344 -2.800781 2.414062 -2.898438 2.28125 -2.964844 C 2.148438 -3.03125 2.007812 -3.0625 1.851562 -3.0625 C 1.578125 -3.0625 1.371094 -2.960938 1.238281 -2.753906 C 1.101562 -2.546875 1.035156 -2.238281 1.035156 -1.820312 C 1.035156 -1.414062 1.101562 -1.105469 1.230469 -0.894531 C 1.359375 -0.683594 1.550781 -0.578125 1.800781 -0.578125 C 1.875 -0.578125 1.9375 -0.582031 1.996094 -0.597656 C 2.050781 -0.609375 2.09375 -0.632812 2.128906 -0.660156 Z "/>
</g>
<g id="glyph-0-1">
<path d="M 1.710938 -1.285156 C 1.441406 -1.285156 1.253906 -1.25 1.148438 -1.179688 C 1.042969 -1.113281 0.992188 -0.996094 0.992188 -0.828125 C 0.992188 -0.707031 1.027344 -0.609375 1.101562 -0.535156 C 1.175781 -0.460938 1.273438 -0.425781 1.398438 -0.425781 C 1.585938 -0.425781 1.734375 -0.496094 1.839844 -0.636719 C 1.941406 -0.78125 1.996094 -0.980469 1.996094 -1.234375 L 1.996094 -1.285156 Z M 2.703125 -1.558594 L 2.703125 0 L 1.996094 0 L 1.996094 -0.304688 C 1.910156 -0.183594 1.796875 -0.09375 1.664062 -0.0273438 C 1.527344 0.0390625 1.378906 0.0703125 1.214844 0.0703125 C 0.90625 0.0703125 0.664062 -0.0117188 0.488281 -0.175781 C 0.316406 -0.339844 0.230469 -0.570312 0.230469 -0.863281 C 0.230469 -1.183594 0.332031 -1.417969 0.539062 -1.570312 C 0.746094 -1.722656 1.066406 -1.800781 1.5 -1.800781 L 1.996094 -1.800781 L 1.996094 -1.917969 C 1.996094 -2.035156 1.953125 -2.121094 1.867188 -2.179688 C 1.785156 -2.242188 1.660156 -2.269531 1.5 -2.269531 C 1.328125 -2.269531 1.164062 -2.25 1.003906 -2.207031 C 0.84375 -2.164062 0.675781 -2.09375 0.5 -2 L 0.5 -2.609375 C 0.65625 -2.675781 0.820312 -2.722656 0.980469 -2.753906 C 1.144531 -2.785156 1.316406 -2.800781 1.5 -2.800781 C 1.945312 -2.800781 2.253906 -2.710938 2.433594 -2.53125 C 2.613281 -2.347656 2.703125 -2.027344 2.703125 -1.558594 Z "/>
</g>
<g id="glyph-0-2">
<path d="M 1.683594 -3.511719 L 1.683594 -2.734375 L 2.621094 -2.734375 L 2.621094 -2.183594 L 1.683594 -2.183594 L 1.683594 -0.890625 C 1.683594 -0.769531 1.714844 -0.679688 1.773438 -0.628906 C 1.832031 -0.574219 1.933594 -0.550781 2.070312 -0.550781 L 2.621094 -0.550781 L 2.621094 0 L 2.019531 0 C 1.609375 0 1.332031 -0.0664062 1.1875 -0.195312 C 1.042969 -0.328125 0.96875 -0.570312 0.96875 -0.925781 L 0.96875 -2.183594 L 0.269531 -2.183594 L 0.269531 -2.734375 L 0.96875 -2.734375 L 0.96875 -3.511719 Z "/>
</g>
<g id="glyph-0-3">
<path d="M 2.691406 -0.132812 C 2.523438 -0.0664062 2.355469 -0.015625 2.183594 0.0195312 C 2.011719 0.0546875 1.828125 0.0703125 1.636719 0.0703125 C 1.179688 0.0703125 0.828125 -0.0507812 0.585938 -0.296875 C 0.34375 -0.542969 0.226562 -0.894531 0.226562 -1.355469 C 0.226562 -1.800781 0.339844 -2.152344 0.574219 -2.414062 C 0.804688 -2.671875 1.125 -2.800781 1.527344 -2.800781 C 1.929688 -2.800781 2.246094 -2.679688 2.46875 -2.441406 C 2.691406 -2.199219 2.804688 -1.863281 2.804688 -1.425781 L 2.804688 -1.136719 L 0.953125 -1.136719 C 0.953125 -0.921875 1.015625 -0.761719 1.140625 -0.65625 C 1.265625 -0.550781 1.453125 -0.496094 1.703125 -0.496094 C 1.867188 -0.496094 2.03125 -0.519531 2.191406 -0.566406 C 2.351562 -0.613281 2.515625 -0.6875 2.691406 -0.789062 Z M 2.085938 -1.671875 C 2.082031 -1.859375 2.035156 -2.003906 1.941406 -2.101562 C 1.847656 -2.199219 1.707031 -2.246094 1.527344 -2.246094 C 1.363281 -2.246094 1.230469 -2.195312 1.132812 -2.097656 C 1.035156 -1.996094 0.976562 -1.855469 0.960938 -1.671875 Z "/>
</g>
<g id="glyph-0-4">
<rect x="0" y="0" width="0" height="0" mask="url(#mask-0)"/>
</g>
<g id="glyph-0-5">
<path d="M 0.683594 -1.445312 C 0.738281 -1.445312 0.78125 -1.398438 0.8125 -1.308594 C 0.867188 -1.136719 0.90625 -1.050781 0.933594 -1.050781 C 0.953125 -1.050781 0.972656 -1.0625 0.992188 -1.09375 C 1.390625 -1.734375 1.761719 -2.253906 2.101562 -2.648438 C 2.191406 -2.75 2.328125 -2.804688 2.523438 -2.804688 C 2.566406 -2.804688 2.597656 -2.796875 2.613281 -2.789062 C 2.628906 -2.78125 2.636719 -2.773438 2.636719 -2.757812 C 2.636719 -2.738281 2.613281 -2.699219 2.566406 -2.640625 C 2.015625 -1.980469 1.507812 -1.28125 1.039062 -0.546875 C 1.003906 -0.496094 0.9375 -0.46875 0.835938 -0.46875 C 0.734375 -0.46875 0.671875 -0.472656 0.65625 -0.484375 C 0.605469 -0.503906 0.546875 -0.613281 0.484375 -0.8125 C 0.410156 -1.03125 0.375 -1.164062 0.375 -1.21875 C 0.375 -1.277344 0.421875 -1.335938 0.523438 -1.390625 C 0.582031 -1.425781 0.636719 -1.445312 0.683594 -1.445312 Z "/>
</g>
</g>
<image id="source-705" x="0" y="0" width="0" height="0"/>
<mask id="mask-0">
<use xlink:href="#source-705"/>
</mask>
</defs>
<g fill="rgb(100%, 54.901961%, 0%)" fill-opacity="1">
<use xlink:href="#glyph-0-0" x="30" y="24.641602"/>
<use xlink:href="#glyph-0-1" x="33" y="24.641602"/>
<use xlink:href="#glyph-0-2" x="36" y="24.641602"/>
<use xlink:href="#glyph-0-3" x="39" y="24.641602"/>
<use xlink:href="#glyph-0-4" x="42" y="24.641602"/>
<use xlink:href="#glyph-0-5" x="45" y="24.641602"/>
</g>
</svg>
