<?xml version="1.0" encoding="UTF-8"?>
<svg xmlns="http://www.w3.org/2000/svg" xmlns:xlink="http://www.w3.org/1999/xlink" width="854" height="480" viewBox="0 0 854 480">
<defs>
<g>
<g id="glyph-0-0">
<path d="M 0.210938 -3.644531 L 1.070312 -3.644531 L 1.503906 -2.046875 L 1.9375 -3.644531 L 2.800781 -3.644531 L 2.800781 0 L 2.179688 0 L 2.179688 -2.921875 L 1.792969 -1.324219 L 1.21875 -1.324219 L 0.828125 -2.921875 L 0.828125 0 L 0.210938 0 Z "/>
</g>
<g id="glyph-0-1">
<path d="M 2.691406 -0.132812 C 2.523438 -0.0664062 2.355469 -0.015625 2.183594 0.0195312 C 2.011719 0.0546875 1.828125 0.0703125 1.636719 0.0703125 C 1.179688 0.0703125 0.828125 -0.0507812 0.585938 -0.296875 C 0.34375 -0.542969 0.226562 -0.894531 0.226562 -1.355469 C 0.226562 -1.800781 0.339844 -2.152344 0.574219 -2.414062 C 0.804688 -2.671875 1.125 -2.800781 1.527344 -2.800781 C 1.929688 -2.800781 2.246094 -2.679688 2.46875 -2.441406 C 2.691406 -2.199219 2.804688 -1.863281 2.804688 -1.425781 L 2.804688 -1.136719 L 0.953125 -1.136719 C 0.953125 -0.921875 1.015625 -0.761719 1.140625 -0.65625 C 1.265625 -0.550781 1.453125 -0.496094 1.703125 -0.496094 C 1.867188 -0.496094 2.03125 -0.519531 2.191406 -0.566406 C 2.351562 -0.613281 2.515625 -0.6875 2.691406 -0.789062 Z M 2.085938 -1.671875 C 2.082031 -1.859375 2.035156 -2.003906 1.941406 -2.101562 C 1.847656 -2.199219 1.707031 -2.246094 1.527344 -2.246094 C 1.363281 -2.246094 1.230469 -2.195312 1.132812 -2.097656 C 1.035156 -1.996094 0.976562 -1.855469 0.960938 -1.671875 Z "/>
</g>
<g id="glyph-0-2">
<path d="M 2.808594 -1.980469 C 2.730469 -2.050781 2.640625 -2.105469 2.535156 -2.140625 C 2.429688 -2.175781 2.316406 -2.195312 2.191406 -2.195312 C 2.039062 -2.195312 1.90625 -2.167969 1.792969 -2.117188 C 1.679688 -2.0625 1.59375 -1.984375 1.53125 -1.882812 C 1.492188 -1.820312 1.464844 -1.75 1.449219 -1.660156 C 1.433594 -1.570312 1.425781 -1.4375 1.425781 -1.257812 L 1.425781 0 L 0.710938 0 L 0.710938 -2.734375 L 1.425781 -2.734375 L 1.425781 -2.308594 C 1.496094 -2.464844 1.601562 -2.585938 1.75 -2.671875 C 1.894531 -2.757812 2.0625 -2.800781 2.257812 -2.800781 C 2.355469 -2.800781 2.449219 -2.789062 2.542969 -2.765625 C 2.636719 -2.742188 2.726562 -2.707031 2.808594 -2.660156 Z "/>
</g>
<g id="glyph-0-3">
<path d="M 1.960938 -1.410156 C 1.960938 -1.65625 1.914062 -1.851562 1.820312 -2 C 1.726562 -2.144531 1.605469 -2.21875 1.453125 -2.21875 C 1.304688 -2.21875 1.183594 -2.144531 1.09375 -2 C 1 -1.851562 0.953125 -1.65625 0.953125 -1.410156 C 0.953125 -1.164062 1 -0.96875 1.09375 -0.820312 C 1.183594 -0.671875 1.304688 -0.601562 1.453125 -0.601562 C 1.605469 -0.601562 1.726562 -0.675781 1.820312 -0.820312 C 1.914062 -0.96875 1.960938 -1.164062 1.960938 -1.410156 Z M 2.675781 -0.203125 C 2.675781 0.234375 2.578125 0.550781 2.378906 0.742188 C 2.179688 0.9375 1.859375 1.035156 1.414062 1.035156 C 1.265625 1.035156 1.117188 1.023438 0.972656 1.003906 C 0.824219 0.980469 0.675781 0.945312 0.523438 0.902344 L 0.523438 0.242188 C 0.660156 0.320312 0.796875 0.375 0.9375 0.410156 C 1.078125 0.445312 1.222656 0.464844 1.371094 0.464844 C 1.570312 0.464844 1.71875 0.417969 1.816406 0.320312 C 1.914062 0.226562 1.960938 0.078125 1.960938 -0.125 L 1.960938 -0.421875 C 1.890625 -0.289062 1.796875 -0.191406 1.683594 -0.128906 C 1.566406 -0.0664062 1.425781 -0.0351562 1.257812 -0.0351562 C 0.945312 -0.0351562 0.699219 -0.15625 0.515625 -0.398438 C 0.332031 -0.644531 0.238281 -0.976562 0.238281 -1.394531 C 0.238281 -1.828125 0.332031 -2.171875 0.515625 -2.425781 C 0.699219 -2.679688 0.945312 -2.804688 1.253906 -2.804688 C 1.410156 -2.804688 1.550781 -2.769531 1.671875 -2.695312 C 1.792969 -2.621094 1.890625 -2.519531 1.960938 -2.386719 L 1.960938 -2.734375 L 2.675781 -2.734375 Z "/>
</g>
<g id="glyph-0-4">
<path d="M 1.929688 -2.347656 L 1.929688 -3.796875 L 2.644531 -3.796875 L 2.644531 0 L 1.929688 0 L 1.929688 -0.40625 C 1.855469 -0.246094 1.753906 -0.128906 1.632812 -0.046875 C 1.511719 0.03125 1.371094 0.0703125 1.207031 0.0703125 C 0.894531 0.0703125 0.652344 -0.0546875 0.476562 -0.304688 C 0.304688 -0.554688 0.21875 -0.910156 0.21875 -1.363281 C 0.21875 -1.828125 0.308594 -2.183594 0.480469 -2.429688 C 0.65625 -2.675781 0.90625 -2.800781 1.230469 -2.800781 C 1.375 -2.800781 1.507812 -2.761719 1.625 -2.6875 C 1.742188 -2.609375 1.84375 -2.496094 1.929688 -2.347656 Z M 0.933594 -1.359375 C 0.933594 -1.097656 0.980469 -0.890625 1.066406 -0.738281 C 1.15625 -0.589844 1.277344 -0.515625 1.429688 -0.515625 C 1.585938 -0.515625 1.707031 -0.589844 1.796875 -0.738281 C 1.886719 -0.890625 1.929688 -1.097656 1.929688 -1.359375 C 1.929688 -1.625 1.886719 -1.832031 1.796875 -1.980469 C 1.707031 -2.128906 1.585938 -2.203125 1.429688 -2.203125 C 1.277344 -2.203125 1.15625 -2.128906 1.066406 -1.980469 C 0.980469 -1.832031 0.933594 -1.625 0.933594 -1.359375 Z "/>
</g>
</g>
</defs>
<g fill="rgb(22.352941%, 100%, 7.843137%)" fill-opacity="1">
<use xlink:href="#glyph-0-0" x="30" y="24.641602"/>
<use xlink:href="#glyph-0-1" x="33" y="24.641602"/>
<use xlink:href="#glyph-0-2" x="36" y="24.641602"/>
<use xlink:href="#glyph-0-3" x="39" y="24.641602"/>
<use xlink:href="#glyph-0-1" x="42" y="24.641602"/>
<use xlink:href="#glyph-0-4" x="45" y="24.641602"/>
</g>
</svg>
