<?xml version="1.0" encoding="UTF-8"?>
<svg xmlns="http://www.w3.org/2000/svg" xmlns:xlink="http://www.w3.org/1999/xlink" width="854" height="480" viewBox="0 0 854 480">
<defs>
<g>
<g id="glyph-0-0">
<path d="M 1.238281 -3.378906 L 1.238281 -2.1875 L 1.566406 -2.1875 C 1.828125 -2.1875 2.015625 -2.234375 2.121094 -2.320312 C 2.226562 -2.410156 2.277344 -2.5625 2.277344 -2.785156 C 2.277344 -3.003906 2.226562 -3.15625 2.121094 -3.246094 C 2.015625 -3.332031 1.832031 -3.378906 1.566406 -3.378906 Z M 0.441406 -4.050781 L 1.539062 -4.050781 C 2.097656 -4.050781 2.5 -3.949219 2.742188 -3.75 C 2.988281 -3.550781 3.113281 -3.230469 3.113281 -2.785156 C 3.113281 -2.335938 2.988281 -2.015625 2.742188 -1.816406 C 2.5 -1.617188 2.097656 -1.515625 1.539062 -1.515625 L 1.238281 -1.515625 L 1.238281 0 L 0.441406 0 Z "/>
</g>
<g id="glyph-0-1">
<path d="M 3.121094 -2.199219 C 3.035156 -2.28125 2.933594 -2.339844 2.816406 -2.378906 C 2.699219 -2.417969 2.574219 -2.4375 2.433594 -2.4375 C 2.265625 -2.4375 2.117188 -2.410156 1.992188 -2.351562 C 1.867188 -2.292969 1.769531 -2.207031 1.699219 -2.09375 C 1.65625 -2.023438 1.628906 -1.941406 1.609375 -1.84375 C 1.59375 -1.746094 1.585938 -1.597656 1.585938 -1.398438 L 1.585938 0 L 0.789062 0 L 0.789062 -3.039062 L 1.585938 -3.039062 L 1.585938 -2.566406 C 1.664062 -2.738281 1.78125 -2.875 1.941406 -2.96875 C 2.101562 -3.0625 2.292969 -3.113281 2.507812 -3.113281 C 2.617188 -3.113281 2.722656 -3.097656 2.824219 -3.070312 C 2.929688 -3.046875 3.027344 -3.007812 3.121094 -2.957031 Z "/>
</g>
<g id="glyph-0-2">
<path d="M 1.671875 -2.464844 C 1.480469 -2.464844 1.332031 -2.382812 1.222656 -2.214844 C 1.113281 -2.046875 1.0625 -1.816406 1.0625 -1.515625 C 1.0625 -1.21875 1.113281 -0.984375 1.222656 -0.816406 C 1.332031 -0.648438 1.480469 -0.566406 1.671875 -0.566406 C 1.863281 -0.566406 2.011719 -0.652344 2.121094 -0.816406 C 2.230469 -0.984375 2.285156 -1.21875 2.285156 -1.515625 C 2.285156 -1.816406 2.230469 -2.046875 2.121094 -2.214844 C 2.011719 -2.382812 1.863281 -2.464844 1.671875 -2.464844 Z M 0.265625 -1.515625 C 0.265625 -2.007812 0.394531 -2.394531 0.648438 -2.679688 C 0.902344 -2.96875 1.242188 -3.113281 1.671875 -3.113281 C 2.101562 -3.113281 2.445312 -2.96875 2.699219 -2.679688 C 2.953125 -2.394531 3.078125 -2.007812 3.078125 -1.515625 C 3.078125 -1.027344 2.953125 -0.636719 2.699219 -0.351562 C 2.445312 -0.0664062 2.101562 0.078125 1.671875 0.078125 C 1.242188 0.078125 0.902344 -0.0664062 0.648438 -0.351562 C 0.394531 -0.636719 0.265625 -1.027344 0.265625 -1.515625 Z "/>
</g>
<g id="glyph-0-3">
<path d="M 1.871094 -2.734375 C 1.929688 -2.863281 2.007812 -2.957031 2.101562 -3.019531 C 2.191406 -3.082031 2.304688 -3.113281 2.4375 -3.113281 C 2.699219 -3.113281 2.882812 -3.019531 2.984375 -2.839844 C 3.082031 -2.660156 3.132812 -2.285156 3.132812 -1.710938 L 3.132812 0 L 2.480469 0 L 2.480469 -1.949219 C 2.480469 -2.175781 2.464844 -2.328125 2.429688 -2.402344 C 2.394531 -2.480469 2.332031 -2.515625 2.242188 -2.515625 C 2.152344 -2.515625 2.089844 -2.480469 2.054688 -2.402344 C 2.019531 -2.324219 2 -2.171875 2 -1.949219 L 2 0 L 1.355469 0 L 1.355469 -1.949219 C 1.355469 -2.171875 1.339844 -2.324219 1.300781 -2.402344 C 1.265625 -2.480469 1.203125 -2.515625 1.113281 -2.515625 C 1.023438 -2.515625 0.960938 -2.480469 0.925781 -2.402344 C 0.890625 -2.328125 0.875 -2.175781 0.875 -1.949219 L 0.875 0 L 0.222656 0 L 0.222656 -3.039062 L 0.800781 -3.039062 L 0.800781 -2.722656 C 0.84375 -2.84375 0.917969 -2.9375 1.015625 -3.007812 C 1.117188 -3.078125 1.226562 -3.113281 1.351562 -3.113281 C 1.472656 -3.113281 1.585938 -3.074219 1.6875 -3 C 1.789062 -2.929688 1.851562 -2.839844 1.871094 -2.734375 Z "/>
</g>
<g id="glyph-0-4">
<path d="M 1.871094 -3.902344 L 1.871094 -3.039062 L 2.910156 -3.039062 L 2.910156 -2.429688 L 1.871094 -2.429688 L 1.871094 -0.988281 C 1.871094 -0.855469 1.90625 -0.757812 1.972656 -0.699219 C 2.039062 -0.640625 2.148438 -0.609375 2.300781 -0.609375 L 2.910156 -0.609375 L 2.910156 0 L 2.242188 0 C 1.789062 0 1.480469 -0.0742188 1.320312 -0.21875 C 1.15625 -0.363281 1.078125 -0.632812 1.078125 -1.027344 L 1.078125 -2.429688 L 0.300781 -2.429688 L 0.300781 -3.039062 L 1.078125 -3.039062 L 1.078125 -3.902344 Z "/>
</g>
<g id="glyph-0-5">
<path d="M 2.988281 -0.148438 C 2.804688 -0.0742188 2.617188 -0.015625 2.425781 0.0234375 C 2.234375 0.0585938 2.03125 0.078125 1.816406 0.078125 C 1.308594 0.078125 0.921875 -0.0585938 0.652344 -0.328125 C 0.382812 -0.601562 0.25 -0.992188 0.25 -1.503906 C 0.25 -2 0.378906 -2.394531 0.636719 -2.679688 C 0.894531 -2.96875 1.25 -3.113281 1.695312 -3.113281 C 2.144531 -3.113281 2.496094 -2.976562 2.742188 -2.710938 C 2.992188 -2.445312 3.117188 -2.070312 3.117188 -1.585938 L 3.117188 -1.261719 L 1.058594 -1.261719 C 1.058594 -1.023438 1.128906 -0.84375 1.269531 -0.726562 C 1.410156 -0.609375 1.617188 -0.550781 1.894531 -0.550781 C 2.078125 -0.550781 2.257812 -0.578125 2.433594 -0.628906 C 2.609375 -0.683594 2.796875 -0.765625 2.988281 -0.878906 Z M 2.316406 -1.859375 C 2.3125 -2.070312 2.257812 -2.226562 2.15625 -2.335938 C 2.050781 -2.441406 1.898438 -2.496094 1.695312 -2.496094 C 1.511719 -2.496094 1.367188 -2.441406 1.257812 -2.328125 C 1.148438 -2.21875 1.085938 -2.058594 1.066406 -1.855469 Z "/>
</g>
<g id="glyph-0-6">
<rect x="0" y="0" width="0" height="0" mask="url(#mask-0)"/>
</g>
<g id="glyph-0-7">
<path d="M 3.164062 -1.328125 L 2.375 -0.539062 L 2.050781 -0.867188 L 2.402344 -1.21875 L 0.179688 -1.21875 L 0.179688 -1.824219 L 2.402344 -1.824219 L 2.050781 -2.179688 L 2.375 -2.503906 L 3.164062 -1.714844 Z "/>
</g>
<g id="glyph-0-8">
<path d="M 0 -4.050781 L 0.699219 -4.050781 L 0.988281 -1.078125 L 1.339844 -3 L 2.003906 -3 L 2.410156 -1.078125 L 2.640625 -4.050781 L 3.34375 -4.050781 L 2.878906 0 L 2.132812 0 L 1.671875 -2.125 L 1.238281 0 L 0.5 0 Z "/>
</g>
<g id="glyph-0-9">
<path d="M 0.472656 -4.222656 L 1.265625 -4.222656 L 1.265625 -2.003906 L 2.222656 -3.039062 L 3.183594 -3.039062 L 2.035156 -1.90625 L 3.25 0 L 2.371094 0 L 1.539062 -1.421875 L 1.265625 -1.160156 L 1.265625 0 L 0.472656 0 Z "/>
</g>
<g id="glyph-0-10">
<path d="M 1.671875 -3.40625 C 1.46875 -3.40625 1.316406 -3.296875 1.222656 -3.078125 C 1.128906 -2.859375 1.082031 -2.507812 1.082031 -2.019531 C 1.082031 -1.535156 1.128906 -1.183594 1.222656 -0.96875 C 1.316406 -0.75 1.464844 -0.640625 1.671875 -0.640625 C 1.878906 -0.640625 2.027344 -0.75 2.121094 -0.96875 C 2.214844 -1.1875 2.261719 -1.535156 2.261719 -2.019531 C 2.261719 -2.507812 2.214844 -2.859375 2.121094 -3.078125 C 2.027344 -3.296875 1.878906 -3.40625 1.671875 -3.40625 Z M 0.25 -2.019531 C 0.25 -2.714844 0.371094 -3.238281 0.609375 -3.589844 C 0.847656 -3.945312 1.203125 -4.125 1.671875 -4.125 C 2.140625 -4.125 2.496094 -3.945312 2.734375 -3.589844 C 2.976562 -3.238281 3.09375 -2.714844 3.09375 -2.019531 C 3.09375 -1.328125 2.976562 -0.808594 2.734375 -0.453125 C 2.496094 -0.0976562 2.140625 0.078125 1.671875 0.078125 C 1.203125 0.078125 0.847656 -0.0976562 0.609375 -0.453125 C 0.371094 -0.808594 0.25 -1.332031 0.25 -2.019531 Z "/>
</g>
<g id="glyph-0-11">
<path d="M 2.144531 -2.605469 L 2.144531 -4.222656 L 2.9375 -4.222656 L 2.9375 0 L 2.144531 0 L 2.144531 -0.449219 C 2.058594 -0.273438 1.949219 -0.144531 1.816406 -0.0546875 C 1.679688 0.0351562 1.523438 0.078125 1.339844 0.078125 C 0.992188 0.078125 0.722656 -0.0625 0.53125 -0.339844 C 0.339844 -0.617188 0.246094 -1.011719 0.246094 -1.515625 C 0.246094 -2.03125 0.339844 -2.425781 0.535156 -2.699219 C 0.730469 -2.972656 1.007812 -3.113281 1.367188 -3.113281 C 1.53125 -3.113281 1.675781 -3.070312 1.804688 -2.984375 C 1.933594 -2.902344 2.046875 -2.773438 2.144531 -2.605469 Z M 1.039062 -1.511719 C 1.039062 -1.21875 1.085938 -0.988281 1.183594 -0.820312 C 1.28125 -0.65625 1.417969 -0.574219 1.589844 -0.574219 C 1.761719 -0.574219 1.898438 -0.65625 1.996094 -0.820312 C 2.097656 -0.988281 2.144531 -1.21875 2.144531 -1.511719 C 2.144531 -1.804688 2.097656 -2.035156 1.996094 -2.199219 C 1.898438 -2.367188 1.761719 -2.449219 1.589844 -2.449219 C 1.417969 -2.449219 1.28125 -2.367188 1.183594 -2.199219 C 1.085938 -2.035156 1.039062 -1.804688 1.039062 -1.511719 Z "/>
</g>
</g>
<image id="source-196" x="0" y="0" width="0" height="0"/>
<mask id="mask-0">
<use xlink:href="#source-196"/>
</mask>
</defs>
<g fill="rgb(100%, 54.901961%, 0%)" fill-opacity="1">
<use xlink:href="#glyph-0-0" x="30" y="25.157227"/>
<use xlink:href="#glyph-0-1" x="33" y="25.157227"/>
<use xlink:href="#glyph-0-2" x="36" y="25.157227"/>
<use xlink:href="#glyph-0-3" x="39" y="25.157227"/>
<use xlink:href="#glyph-0-2" x="42" y="25.157227"/>
<use xlink:href="#glyph-0-4" x="45" y="25.157227"/>
<use xlink:href="#glyph-0-5" x="48" y="25.157227"/>
<use xlink:href="#glyph-0-6" x="51" y="25.157227"/>
<use xlink:href="#glyph-0-7" x="54" y="25.157227"/>
<use xlink:href="#glyph-0-6" x="57" y="25.157227"/>
<use xlink:href="#glyph-0-8" x="60" y="25.157227"/>
<use xlink:href="#glyph-0-2" x="63" y="25.157227"/>
<use xlink:href="#glyph-0-1" x="66" y="25.157227"/>
<use xlink:href="#glyph-0-9" x="69" y="25.157227"/>
<use xlink:href="#glyph-0-6" x="72" y="25.157227"/>
<use xlink:href="#glyph-0-10" x="75" y="25.157227"/>
<use xlink:href="#glyph-0-1" x="78" y="25.157227"/>
<use xlink:href="#glyph-0-11" x="81" y="25.157227"/>
<use xlink:href="#glyph-0-5" x="84" y="25.157227"/>
<use xlink:href="#glyph-0-1" x="87" y="25.157227"/>
</g>
</svg>
