<?xml version="1.0" encoding="UTF-8"?>
<svg xmlns="http://www.w3.org/2000/svg" xmlns:xlink="http://www.w3.org/1999/xlink" width="854" height="480" viewBox="0 0 854 480">
<defs>
<g>
<g id="glyph-0-0">
<path d="M 2.824219 -1.691406 L 6.921875 -1.691406 L 6.921875 0 L 0.75 0 L 0.75 -1.640625 L 1.789062 -2.746094 C 3.027344 -4.0625 3.777344 -4.871094 4.042969 -5.175781 C 4.367188 -5.550781 4.601562 -5.878906 4.746094 -6.167969 C 4.890625 -6.457031 4.960938 -6.742188 4.960938 -7.023438 C 4.960938 -7.457031 4.828125 -7.792969 4.566406 -8.03125 C 4.304688 -8.265625 3.933594 -8.386719 3.449219 -8.386719 C 3.105469 -8.386719 2.722656 -8.316406 2.292969 -8.179688 C 1.867188 -8.042969 1.421875 -7.84375 0.957031 -7.585938 L 0.957031 -9.375 C 1.421875 -9.542969 1.875 -9.671875 2.320312 -9.761719 C 2.765625 -9.851562 3.191406 -9.894531 3.601562 -9.894531 C 4.628906 -9.894531 5.4375 -9.65625 6.023438 -9.175781 C 6.613281 -8.695312 6.90625 -8.042969 6.90625 -7.214844 C 6.90625 -6.832031 6.84375 -6.472656 6.714844 -6.140625 C 6.585938 -5.804688 6.367188 -5.433594 6.054688 -5.027344 C 5.824219 -4.730469 5.191406 -4.066406 4.160156 -3.035156 C 3.601562 -2.472656 3.15625 -2.027344 2.824219 -1.691406 Z "/>
</g>
<g id="glyph-0-1">
<path d="M 2.921875 -2.390625 L 5.089844 -2.390625 L 5.089844 0 L 2.921875 0 Z "/>
</g>
<g id="glyph-0-2">
<rect x="0" y="0" width="0" height="0" mask="url(#mask-0)"/>
</g>
<g id="glyph-0-3">
<path d="M 2.8125 -7.988281 L 2.8125 -1.730469 L 3.332031 -1.730469 C 4.089844 -1.730469 4.625 -1.96875 4.949219 -2.445312 C 5.269531 -2.921875 5.429688 -3.726562 5.429688 -4.871094 C 5.429688 -6.003906 5.269531 -6.804688 4.949219 -7.277344 C 4.628906 -7.75 4.089844 -7.988281 3.332031 -7.988281 Z M 0.890625 -9.71875 L 2.949219 -9.71875 C 4.539062 -9.71875 5.679688 -9.339844 6.378906 -8.582031 C 7.078125 -7.824219 7.429688 -6.589844 7.429688 -4.871094 C 7.429688 -3.148438 7.078125 -1.902344 6.378906 -1.140625 C 5.679688 -0.378906 4.539062 0 2.949219 0 L 0.890625 0 Z "/>
</g>
<g id="glyph-0-4">
<path d="M 7.175781 -0.359375 C 6.730469 -0.175781 6.28125 -0.0390625 5.820312 0.0507812 C 5.359375 0.144531 4.875 0.1875 4.363281 0.1875 C 3.144531 0.1875 2.210938 -0.136719 1.566406 -0.789062 C 0.921875 -1.445312 0.597656 -2.386719 0.597656 -3.613281 C 0.597656 -4.800781 0.910156 -5.742188 1.53125 -6.433594 C 2.152344 -7.121094 2.996094 -7.46875 4.070312 -7.46875 C 5.148438 -7.46875 5.988281 -7.148438 6.585938 -6.507812 C 7.183594 -5.867188 7.480469 -4.964844 7.480469 -3.800781 L 7.480469 -3.027344 L 2.539062 -3.027344 C 2.542969 -2.453125 2.710938 -2.027344 3.046875 -1.746094 C 3.382812 -1.464844 3.878906 -1.320312 4.542969 -1.320312 C 4.980469 -1.320312 5.414062 -1.382812 5.839844 -1.511719 C 6.265625 -1.636719 6.710938 -1.835938 7.175781 -2.109375 Z M 5.558594 -4.460938 C 5.550781 -4.964844 5.421875 -5.34375 5.171875 -5.601562 C 4.921875 -5.859375 4.554688 -5.988281 4.070312 -5.988281 C 3.632812 -5.988281 3.28125 -5.855469 3.019531 -5.589844 C 2.761719 -5.324219 2.605469 -4.945312 2.558594 -4.453125 Z "/>
</g>
<g id="glyph-0-5">
<path d="M 7.507812 -7.292969 L 5.1875 0 L 2.839844 0 L 0.519531 -7.292969 L 2.453125 -7.292969 L 4.011719 -1.601562 L 5.574219 -7.292969 Z "/>
</g>
<g id="glyph-0-6">
<path d="M 2.519531 -3.039062 L 2.519531 -8.664062 L 0.585938 -8.664062 L 0.585938 -10.128906 L 4.425781 -10.128906 L 4.425781 -3.039062 C 4.425781 -2.46875 4.515625 -2.0625 4.695312 -1.824219 C 4.871094 -1.585938 5.171875 -1.464844 5.597656 -1.464844 L 7.121094 -1.464844 L 7.121094 0 L 5.066406 0 C 4.160156 0 3.507812 -0.234375 3.113281 -0.703125 C 2.71875 -1.171875 2.519531 -1.949219 2.519531 -3.039062 Z "/>
</g>
<g id="glyph-0-7">
<path d="M 4.011719 -5.917969 C 3.554688 -5.917969 3.195312 -5.71875 2.9375 -5.316406 C 2.675781 -4.914062 2.546875 -4.355469 2.546875 -3.640625 C 2.546875 -2.921875 2.675781 -2.363281 2.9375 -1.960938 C 3.195312 -1.5625 3.554688 -1.359375 4.011719 -1.359375 C 4.472656 -1.359375 4.832031 -1.5625 5.089844 -1.960938 C 5.351562 -2.363281 5.480469 -2.921875 5.480469 -3.640625 C 5.480469 -4.355469 5.351562 -4.914062 5.089844 -5.316406 C 4.832031 -5.71875 4.46875 -5.917969 4.011719 -5.917969 Z M 0.636719 -3.640625 C 0.636719 -4.816406 0.941406 -5.746094 1.550781 -6.433594 C 2.160156 -7.121094 2.980469 -7.46875 4.011719 -7.46875 C 5.042969 -7.46875 5.863281 -7.125 6.472656 -6.433594 C 7.082031 -5.746094 7.390625 -4.816406 7.390625 -3.640625 C 7.390625 -2.464844 7.085938 -1.53125 6.472656 -0.84375 C 5.863281 -0.15625 5.042969 0.1875 4.011719 0.1875 C 2.980469 0.1875 2.164062 -0.15625 1.550781 -0.84375 C 0.941406 -1.53125 0.636719 -2.464844 0.636719 -3.640625 Z "/>
</g>
<g id="glyph-0-8">
<path d="M 2.878906 -1.027344 L 2.878906 2.773438 L 0.976562 2.773438 L 0.976562 -7.292969 L 2.878906 -7.292969 L 2.878906 -6.199219 C 3.078125 -6.621094 3.339844 -6.9375 3.664062 -7.148438 C 3.992188 -7.359375 4.371094 -7.46875 4.8125 -7.46875 C 5.644531 -7.46875 6.292969 -7.132812 6.75 -6.464844 C 7.210938 -5.796875 7.441406 -4.855469 7.441406 -3.640625 C 7.441406 -2.40625 7.207031 -1.460938 6.742188 -0.800781 C 6.273438 -0.140625 5.609375 0.1875 4.746094 0.1875 C 4.355469 0.1875 4.003906 0.0859375 3.695312 -0.113281 C 3.382812 -0.316406 3.113281 -0.621094 2.878906 -1.027344 Z M 5.535156 -3.652344 C 5.535156 -4.355469 5.417969 -4.90625 5.183594 -5.304688 C 4.949219 -5.703125 4.625 -5.90625 4.210938 -5.90625 C 3.800781 -5.90625 3.472656 -5.707031 3.234375 -5.304688 C 2.996094 -4.90625 2.878906 -4.355469 2.878906 -3.652344 C 2.878906 -2.949219 2.996094 -2.398438 3.234375 -2 C 3.472656 -1.601562 3.800781 -1.398438 4.210938 -1.398438 C 4.625 -1.398438 4.949219 -1.597656 5.183594 -2 C 5.417969 -2.398438 5.535156 -2.949219 5.535156 -3.652344 Z "/>
</g>
<g id="glyph-0-9">
<path d="M 7.492188 -5.28125 C 7.285156 -5.472656 7.039062 -5.613281 6.761719 -5.710938 C 6.480469 -5.804688 6.175781 -5.851562 5.839844 -5.851562 C 5.4375 -5.851562 5.082031 -5.78125 4.78125 -5.640625 C 4.480469 -5.5 4.246094 -5.296875 4.082031 -5.027344 C 3.976562 -4.863281 3.90625 -4.660156 3.863281 -4.425781 C 3.824219 -4.191406 3.800781 -3.835938 3.800781 -3.359375 L 3.800781 0 L 1.894531 0 L 1.894531 -7.292969 L 3.800781 -7.292969 L 3.800781 -6.160156 C 3.988281 -6.574219 4.273438 -6.898438 4.660156 -7.125 C 5.046875 -7.351562 5.5 -7.46875 6.015625 -7.46875 C 6.277344 -7.46875 6.53125 -7.4375 6.78125 -7.371094 C 7.03125 -7.308594 7.269531 -7.21875 7.492188 -7.097656 Z "/>
</g>
</g>
<image id="source-131" x="0" y="0" width="0" height="0"/>
<mask id="mask-0">
<use xlink:href="#source-131"/>
</mask>
</defs>
<g fill="rgb(22.352941%, 100%, 7.843137%)" fill-opacity="1">
<use xlink:href="#glyph-0-0" x="30" y="32.375977"/>
<use xlink:href="#glyph-0-1" x="38" y="32.375977"/>
<use xlink:href="#glyph-0-2" x="46" y="32.375977"/>
<use xlink:href="#glyph-0-3" x="54" y="32.375977"/>
<use xlink:href="#glyph-0-4" x="62" y="32.375977"/>
<use xlink:href="#glyph-0-5" x="70" y="32.375977"/>
<use xlink:href="#glyph-0-4" x="78" y="32.375977"/>
<use xlink:href="#glyph-0-6" x="86" y="32.375977"/>
<use xlink:href="#glyph-0-7" x="94" y="32.375977"/>
<use xlink:href="#glyph-0-8" x="102" y="32.375977"/>
<use xlink:href="#glyph-0-4" x="110" y="32.375977"/>
<use xlink:href="#glyph-0-9" x="118" y="32.375977"/>
</g>
</svg>
