<?xml version="1.0" encoding="UTF-8"?>
<svg xmlns="http://www.w3.org/2000/svg" xmlns:xlink="http://www.w3.org/1999/xlink" width="854" height="480" viewBox="0 0 854 480">
<defs>
<g>
<g id="glyph-0-0">
<path d="M 1.0625 -2.25 C 1.148438 -2.25 1.214844 -2.175781 1.261719 -2.035156 C 1.351562 -1.765625 1.414062 -1.632812 1.449219 -1.632812 C 1.480469 -1.632812 1.511719 -1.65625 1.542969 -1.703125 C 2.164062 -2.699219 2.738281 -3.503906 3.269531 -4.121094 C 3.40625 -4.28125 3.625 -4.359375 3.921875 -4.359375 C 3.992188 -4.359375 4.042969 -4.351562 4.066406 -4.339844 C 4.089844 -4.328125 4.101562 -4.3125 4.101562 -4.292969 C 4.101562 -4.257812 4.066406 -4.199219 3.992188 -4.109375 C 3.136719 -3.082031 2.34375 -1.996094 1.613281 -0.851562 C 1.5625 -0.769531 1.460938 -0.730469 1.300781 -0.730469 C 1.140625 -0.730469 1.046875 -0.738281 1.019531 -0.75 C 0.941406 -0.785156 0.851562 -0.953125 0.75 -1.261719 C 0.636719 -1.601562 0.582031 -1.8125 0.582031 -1.898438 C 0.582031 -1.988281 0.660156 -2.078125 0.8125 -2.164062 C 0.90625 -2.21875 0.988281 -2.25 1.0625 -2.25 Z "/>
</g>
<g id="glyph-0-1">
<rect x="0" y="0" width="0" height="0" mask="url(#mask-0)"/>
</g>
<g id="glyph-0-2">
<path d="M 4.105469 -0.164062 C 3.929688 -0.0742188 3.742188 -0.00390625 3.546875 0.0429688 C 3.351562 0.0859375 3.148438 0.109375 2.933594 0.109375 C 2.167969 0.109375 1.582031 -0.140625 1.179688 -0.644531 C 0.777344 -1.148438 0.578125 -1.878906 0.578125 -2.828125 C 0.578125 -3.785156 0.777344 -4.511719 1.179688 -5.015625 C 1.582031 -5.519531 2.167969 -5.773438 2.933594 -5.773438 C 3.148438 -5.773438 3.351562 -5.75 3.550781 -5.703125 C 3.75 -5.65625 3.933594 -5.589844 4.105469 -5.5 L 4.105469 -4.253906 C 3.914062 -4.429688 3.726562 -4.558594 3.546875 -4.640625 C 3.363281 -4.722656 3.175781 -4.765625 2.984375 -4.765625 C 2.574219 -4.765625 2.265625 -4.601562 2.054688 -4.277344 C 1.847656 -3.953125 1.742188 -3.46875 1.742188 -2.828125 C 1.742188 -2.191406 1.847656 -1.710938 2.054688 -1.382812 C 2.265625 -1.058594 2.574219 -0.894531 2.984375 -0.894531 C 3.175781 -0.894531 3.363281 -0.9375 3.546875 -1.019531 C 3.726562 -1.101562 3.914062 -1.230469 4.105469 -1.410156 Z "/>
</g>
<g id="glyph-0-3">
<path d="M 0.855469 0 L 0.855469 -5.667969 L 1.976562 -5.667969 L 1.976562 -0.988281 L 4.371094 -0.988281 L 4.371094 0 Z "/>
</g>
<g id="glyph-0-4">
<path d="M 2.339844 -4.765625 C 2.054688 -4.765625 1.84375 -4.613281 1.710938 -4.308594 C 1.582031 -4.003906 1.515625 -3.511719 1.515625 -2.828125 C 1.515625 -2.148438 1.582031 -1.660156 1.710938 -1.355469 C 1.84375 -1.050781 2.054688 -0.894531 2.339844 -0.894531 C 2.628906 -0.894531 2.839844 -1.046875 2.96875 -1.355469 C 3.101562 -1.660156 3.167969 -2.152344 3.167969 -2.828125 C 3.167969 -3.511719 3.101562 -4.003906 2.96875 -4.308594 C 2.835938 -4.613281 2.628906 -4.765625 2.339844 -4.765625 Z M 0.347656 -2.828125 C 0.347656 -3.796875 0.515625 -4.53125 0.851562 -5.027344 C 1.1875 -5.523438 1.683594 -5.773438 2.339844 -5.773438 C 2.996094 -5.773438 3.496094 -5.523438 3.828125 -5.027344 C 4.164062 -4.53125 4.332031 -3.796875 4.332031 -2.828125 C 4.332031 -1.863281 4.164062 -1.128906 3.828125 -0.632812 C 3.492188 -0.136719 2.996094 0.109375 2.339844 0.109375 C 1.683594 0.109375 1.1875 -0.136719 0.851562 -0.632812 C 0.515625 -1.128906 0.347656 -1.863281 0.347656 -2.828125 Z "/>
</g>
<g id="glyph-0-5">
<path d="M 1.9375 -2.488281 C 1.371094 -2.703125 0.988281 -2.929688 0.789062 -3.164062 C 0.589844 -3.402344 0.488281 -3.71875 0.488281 -4.121094 C 0.488281 -4.632812 0.65625 -5.039062 0.984375 -5.332031 C 1.3125 -5.625 1.765625 -5.773438 2.339844 -5.773438 C 2.601562 -5.773438 2.859375 -5.742188 3.121094 -5.683594 C 3.382812 -5.625 3.640625 -5.535156 3.894531 -5.417969 L 3.894531 -4.324219 C 3.65625 -4.496094 3.410156 -4.625 3.164062 -4.710938 C 2.914062 -4.800781 2.667969 -4.84375 2.425781 -4.84375 C 2.15625 -4.84375 1.949219 -4.792969 1.804688 -4.683594 C 1.660156 -4.574219 1.585938 -4.417969 1.585938 -4.214844 C 1.585938 -4.058594 1.640625 -3.929688 1.746094 -3.824219 C 1.851562 -3.722656 2.070312 -3.609375 2.402344 -3.484375 L 2.886719 -3.304688 C 3.34375 -3.136719 3.675781 -2.914062 3.890625 -2.640625 C 4.105469 -2.363281 4.214844 -2.015625 4.214844 -1.59375 C 4.214844 -1.023438 4.046875 -0.59375 3.707031 -0.3125 C 3.371094 -0.03125 2.859375 0.109375 2.175781 0.109375 C 1.894531 0.109375 1.613281 0.078125 1.332031 0.0078125 C 1.050781 -0.0585938 0.777344 -0.15625 0.511719 -0.289062 L 0.511719 -1.445312 C 0.8125 -1.234375 1.101562 -1.074219 1.378906 -0.972656 C 1.660156 -0.867188 1.9375 -0.816406 2.210938 -0.816406 C 2.488281 -0.816406 2.699219 -0.878906 2.851562 -1.003906 C 3.003906 -1.128906 3.078125 -1.304688 3.078125 -1.53125 C 3.078125 -1.699219 3.027344 -1.847656 2.929688 -1.976562 C 2.828125 -2.105469 2.679688 -2.207031 2.488281 -2.277344 Z "/>
</g>
<g id="glyph-0-6">
<path d="M 4.167969 0 L 0.636719 0 L 0.636719 -5.667969 L 4.167969 -5.667969 L 4.167969 -4.683594 L 1.757812 -4.683594 L 1.757812 -3.460938 L 3.941406 -3.460938 L 3.941406 -2.472656 L 1.757812 -2.472656 L 1.757812 -0.988281 L 4.167969 -0.988281 Z "/>
</g>
<g id="glyph-0-7">
<path d="M 1.640625 -4.660156 L 1.640625 -1.011719 L 1.945312 -1.011719 C 2.386719 -1.011719 2.699219 -1.148438 2.886719 -1.425781 C 3.074219 -1.703125 3.167969 -2.175781 3.167969 -2.839844 C 3.167969 -3.5 3.074219 -3.96875 2.886719 -4.246094 C 2.699219 -4.523438 2.386719 -4.660156 1.945312 -4.660156 Z M 0.519531 -5.667969 L 1.71875 -5.667969 C 2.644531 -5.667969 3.3125 -5.449219 3.722656 -5.007812 C 4.128906 -4.566406 4.332031 -3.84375 4.332031 -2.839844 C 4.332031 -1.835938 4.128906 -1.109375 3.722656 -0.667969 C 3.3125 -0.222656 2.648438 0 1.71875 0 L 0.519531 0 Z "/>
</g>
</g>
<image id="source-957" x="0" y="0" width="0" height="0"/>
<mask id="mask-0">
<use xlink:href="#source-957"/>
</mask>
</defs>
<g fill="rgb(22.352941%, 100%, 7.843137%)" fill-opacity="1">
<use xlink:href="#glyph-0-0" x="30" y="27.21875"/>
<use xlink:href="#glyph-0-1" x="35" y="27.21875"/>
<use xlink:href="#glyph-0-2" x="40" y="27.21875"/>
<use xlink:href="#glyph-0-3" x="45" y="27.21875"/>
<use xlink:href="#glyph-0-4" x="50" y="27.21875"/>
<use xlink:href="#glyph-0-5" x="55" y="27.21875"/>
<use xlink:href="#glyph-0-6" x="60" y="27.21875"/>
<use xlink:href="#glyph-0-7" x="65" y="27.21875"/>
</g>
</svg>
