<?xml version="1.0" encoding="UTF-8"?>
<svg xmlns="http://www.w3.org/2000/svg" xmlns:xlink="http://www.w3.org/1999/xlink" width="854" height="480" viewBox="0 0 854 480">
<defs>
<g>
<g id="glyph-0-0">
<path d="M 1.65625 -0.511719 L 1.65625 -1.054688 L 1.273438 -1.054688 L 1.273438 -1.523438 L 2.144531 -1.523438 L 2.144531 -0.226562 C 2.039062 -0.132812 1.917969 -0.0625 1.789062 -0.015625 C 1.660156 0.03125 1.519531 0.0546875 1.375 0.0546875 C 1.007812 0.0546875 0.722656 -0.0742188 0.523438 -0.328125 C 0.324219 -0.582031 0.222656 -0.945312 0.222656 -1.414062 C 0.222656 -1.890625 0.324219 -2.257812 0.523438 -2.507812 C 0.726562 -2.761719 1.019531 -2.886719 1.398438 -2.886719 C 1.511719 -2.886719 1.625 -2.871094 1.734375 -2.839844 C 1.84375 -2.804688 1.949219 -2.757812 2.046875 -2.699219 L 2.046875 -2.078125 C 1.96875 -2.179688 1.875 -2.253906 1.773438 -2.304688 C 1.671875 -2.355469 1.5625 -2.382812 1.441406 -2.382812 C 1.226562 -2.382812 1.066406 -2.304688 0.964844 -2.144531 C 0.859375 -1.984375 0.804688 -1.742188 0.804688 -1.414062 C 0.804688 -1.097656 0.855469 -0.859375 0.957031 -0.695312 C 1.058594 -0.53125 1.207031 -0.449219 1.398438 -0.449219 C 1.457031 -0.449219 1.507812 -0.453125 1.550781 -0.464844 C 1.59375 -0.476562 1.628906 -0.492188 1.65625 -0.511719 Z "/>
</g>
<g id="glyph-0-1">
<path d="M 1.328125 -1 C 1.121094 -1 0.976562 -0.972656 0.894531 -0.917969 C 0.8125 -0.867188 0.769531 -0.773438 0.769531 -0.644531 C 0.769531 -0.550781 0.800781 -0.472656 0.855469 -0.414062 C 0.914062 -0.359375 0.992188 -0.332031 1.089844 -0.332031 C 1.234375 -0.332031 1.347656 -0.386719 1.429688 -0.496094 C 1.511719 -0.605469 1.550781 -0.761719 1.550781 -0.960938 L 1.550781 -1 Z M 2.105469 -1.214844 L 2.105469 0 L 1.550781 0 L 1.550781 -0.238281 C 1.484375 -0.144531 1.398438 -0.0703125 1.292969 -0.0195312 C 1.1875 0.03125 1.074219 0.0546875 0.945312 0.0546875 C 0.703125 0.0546875 0.515625 -0.0078125 0.378906 -0.136719 C 0.246094 -0.265625 0.179688 -0.441406 0.179688 -0.671875 C 0.179688 -0.921875 0.257812 -1.105469 0.417969 -1.222656 C 0.578125 -1.339844 0.828125 -1.398438 1.167969 -1.398438 L 1.550781 -1.398438 L 1.550781 -1.492188 C 1.550781 -1.582031 1.519531 -1.652344 1.453125 -1.695312 C 1.386719 -1.742188 1.292969 -1.765625 1.167969 -1.765625 C 1.035156 -1.765625 0.90625 -1.75 0.78125 -1.714844 C 0.65625 -1.683594 0.523438 -1.628906 0.390625 -1.554688 L 0.390625 -2.03125 C 0.511719 -2.082031 0.636719 -2.117188 0.761719 -2.140625 C 0.890625 -2.164062 1.023438 -2.179688 1.167969 -2.179688 C 1.511719 -2.179688 1.753906 -2.109375 1.894531 -1.96875 C 2.035156 -1.828125 2.105469 -1.574219 2.105469 -1.214844 Z "/>
</g>
<g id="glyph-0-2">
<path d="M 1.308594 -2.730469 L 1.308594 -2.128906 L 2.039062 -2.128906 L 2.039062 -1.699219 L 1.308594 -1.699219 L 1.308594 -0.691406 C 1.308594 -0.597656 1.332031 -0.53125 1.378906 -0.488281 C 1.425781 -0.449219 1.503906 -0.425781 1.609375 -0.425781 L 2.039062 -0.425781 L 2.039062 0 L 1.570312 0 C 1.25 0 1.035156 -0.0507812 0.921875 -0.152344 C 0.808594 -0.253906 0.753906 -0.445312 0.753906 -0.71875 L 0.753906 -1.699219 L 0.210938 -1.699219 L 0.210938 -2.128906 L 0.753906 -2.128906 L 0.753906 -2.730469 Z "/>
</g>
<g id="glyph-0-3">
<path d="M 2.09375 -0.105469 C 1.964844 -0.0507812 1.832031 -0.0117188 1.699219 0.015625 C 1.5625 0.0429688 1.421875 0.0546875 1.273438 0.0546875 C 0.917969 0.0546875 0.644531 -0.0390625 0.457031 -0.230469 C 0.269531 -0.421875 0.175781 -0.695312 0.175781 -1.054688 C 0.175781 -1.402344 0.265625 -1.675781 0.445312 -1.875 C 0.628906 -2.078125 0.875 -2.179688 1.1875 -2.179688 C 1.503906 -2.179688 1.746094 -2.085938 1.921875 -1.898438 C 2.09375 -1.710938 2.183594 -1.449219 2.183594 -1.109375 L 2.183594 -0.882812 L 0.742188 -0.882812 C 0.742188 -0.714844 0.792969 -0.589844 0.890625 -0.507812 C 0.988281 -0.425781 1.132812 -0.386719 1.324219 -0.386719 C 1.453125 -0.386719 1.578125 -0.402344 1.703125 -0.441406 C 1.828125 -0.476562 1.957031 -0.535156 2.09375 -0.617188 Z M 1.621094 -1.300781 C 1.617188 -1.449219 1.582031 -1.558594 1.507812 -1.632812 C 1.4375 -1.710938 1.328125 -1.746094 1.1875 -1.746094 C 1.058594 -1.746094 0.957031 -1.707031 0.882812 -1.628906 C 0.804688 -1.550781 0.761719 -1.441406 0.746094 -1.300781 Z "/>
</g>
<g id="glyph-0-4">
<rect x="0" y="0" width="0" height="0" mask="url(#mask-0)"/>
</g>
<g id="glyph-0-5">
<path d="M 0.355469 -0.492188 L 0.984375 -0.492188 L 0.984375 -2.335938 L 0.402344 -2.191406 L 0.402344 -2.695312 L 0.988281 -2.835938 L 1.527344 -2.835938 L 1.527344 -0.492188 L 2.15625 -0.492188 L 2.15625 0 L 0.355469 0 Z "/>
</g>
<g id="glyph-0-6">
<path d="M 0.851562 -2.019531 L 1.484375 -2.019531 L 1.484375 -1.324219 L 0.851562 -1.324219 Z M 0.851562 -0.695312 L 1.484375 -0.695312 L 1.484375 0 L 0.851562 0 Z "/>
</g>
<g id="glyph-0-7">
<path d="M 1.171875 -2.324219 L 0.90625 -1.164062 L 1.4375 -1.164062 Z M 0.828125 -2.835938 L 1.515625 -2.835938 L 2.277344 0 L 1.71875 0 L 1.542969 -0.699219 L 0.792969 -0.699219 L 0.621094 0 L 0.0625 0 Z "/>
</g>
<g id="glyph-0-8">
<path d="M 0.839844 -0.300781 L 0.839844 0.808594 L 0.285156 0.808594 L 0.285156 -2.128906 L 0.839844 -2.128906 L 0.839844 -1.808594 C 0.898438 -1.929688 0.972656 -2.023438 1.070312 -2.085938 C 1.164062 -2.148438 1.277344 -2.179688 1.402344 -2.179688 C 1.644531 -2.179688 1.835938 -2.082031 1.96875 -1.886719 C 2.101562 -1.691406 2.171875 -1.417969 2.171875 -1.0625 C 2.171875 -0.703125 2.101562 -0.425781 1.964844 -0.234375 C 1.828125 -0.0429688 1.636719 0.0546875 1.382812 0.0546875 C 1.269531 0.0546875 1.167969 0.0273438 1.078125 -0.0351562 C 0.988281 -0.09375 0.90625 -0.179688 0.839844 -0.300781 Z M 1.613281 -1.066406 C 1.613281 -1.269531 1.582031 -1.429688 1.511719 -1.546875 C 1.445312 -1.664062 1.347656 -1.722656 1.230469 -1.722656 C 1.109375 -1.722656 1.011719 -1.664062 0.945312 -1.546875 C 0.875 -1.429688 0.839844 -1.269531 0.839844 -1.066406 C 0.839844 -0.859375 0.875 -0.699219 0.945312 -0.582031 C 1.015625 -0.464844 1.109375 -0.410156 1.230469 -0.410156 C 1.351562 -0.410156 1.445312 -0.464844 1.511719 -0.582031 C 1.582031 -0.699219 1.613281 -0.859375 1.613281 -1.066406 Z "/>
</g>
<g id="glyph-0-9">
<path d="M 2.1875 -1.539062 C 2.125 -1.59375 2.054688 -1.636719 1.972656 -1.664062 C 1.890625 -1.691406 1.800781 -1.707031 1.703125 -1.707031 C 1.585938 -1.707031 1.484375 -1.6875 1.394531 -1.644531 C 1.308594 -1.605469 1.238281 -1.542969 1.191406 -1.464844 C 1.160156 -1.417969 1.140625 -1.359375 1.128906 -1.292969 C 1.117188 -1.222656 1.109375 -1.121094 1.109375 -0.980469 L 1.109375 0 L 0.550781 0 L 0.550781 -2.128906 L 1.109375 -2.128906 L 1.109375 -1.796875 C 1.164062 -1.917969 1.246094 -2.011719 1.359375 -2.078125 C 1.472656 -2.144531 1.605469 -2.179688 1.753906 -2.179688 C 1.832031 -2.179688 1.90625 -2.167969 1.976562 -2.152344 C 2.050781 -2.132812 2.121094 -2.105469 2.1875 -2.070312 Z "/>
</g>
<g id="glyph-0-10">
<path d="M 1.171875 -1.726562 C 1.039062 -1.726562 0.933594 -1.667969 0.855469 -1.550781 C 0.78125 -1.433594 0.742188 -1.269531 0.742188 -1.0625 C 0.742188 -0.851562 0.78125 -0.691406 0.855469 -0.574219 C 0.933594 -0.457031 1.035156 -0.398438 1.171875 -0.398438 C 1.304688 -0.398438 1.410156 -0.457031 1.484375 -0.574219 C 1.5625 -0.691406 1.597656 -0.851562 1.597656 -1.0625 C 1.597656 -1.269531 1.5625 -1.433594 1.484375 -1.550781 C 1.410156 -1.667969 1.304688 -1.726562 1.171875 -1.726562 Z M 0.1875 -1.0625 C 0.1875 -1.40625 0.273438 -1.675781 0.453125 -1.878906 C 0.632812 -2.078125 0.871094 -2.179688 1.171875 -2.179688 C 1.472656 -2.179688 1.710938 -2.078125 1.890625 -1.878906 C 2.066406 -1.675781 2.15625 -1.40625 2.15625 -1.0625 C 2.15625 -0.71875 2.066406 -0.445312 1.890625 -0.246094 C 1.710938 -0.046875 1.472656 0.0546875 1.171875 0.0546875 C 0.871094 0.0546875 0.632812 -0.046875 0.453125 -0.246094 C 0.273438 -0.445312 0.1875 -0.71875 0.1875 -1.0625 Z "/>
</g>
<g id="glyph-0-11">
<path d="M 2.191406 -2.128906 L 1.515625 0 L 0.828125 0 L 0.152344 -2.128906 L 0.714844 -2.128906 L 1.171875 -0.46875 L 1.625 -2.128906 Z "/>
</g>
<g id="glyph-0-12">
<path d="M 2.035156 -1.378906 L 2.035156 0 L 1.480469 0 L 1.480469 -1.296875 C 1.480469 -1.449219 1.460938 -1.558594 1.414062 -1.625 C 1.371094 -1.691406 1.300781 -1.726562 1.203125 -1.726562 C 1.101562 -1.726562 1.023438 -1.679688 0.964844 -1.589844 C 0.90625 -1.5 0.878906 -1.375 0.878906 -1.21875 L 0.878906 0 L 0.328125 0 L 0.328125 -2.128906 L 0.878906 -2.128906 L 0.878906 -1.808594 C 0.917969 -1.925781 0.984375 -2.015625 1.082031 -2.082031 C 1.175781 -2.144531 1.289062 -2.179688 1.425781 -2.179688 C 1.625 -2.179688 1.777344 -2.113281 1.878906 -1.976562 C 1.980469 -1.84375 2.035156 -1.644531 2.035156 -1.378906 Z "/>
</g>
<g id="glyph-0-13">
<path d="M 0.734375 -0.886719 L 0.734375 -2.527344 L 0.171875 -2.527344 L 0.171875 -2.957031 L 1.292969 -2.957031 L 1.292969 -0.886719 C 1.292969 -0.71875 1.316406 -0.601562 1.371094 -0.53125 C 1.421875 -0.460938 1.507812 -0.425781 1.632812 -0.425781 L 2.078125 -0.425781 L 2.078125 0 L 1.476562 0 C 1.210938 0 1.023438 -0.0703125 0.90625 -0.207031 C 0.792969 -0.34375 0.734375 -0.570312 0.734375 -0.886719 Z "/>
</g>
<g id="glyph-0-14">
<path d="M 1.351562 0.230469 C 1.277344 0.429688 1.1875 0.574219 1.082031 0.667969 C 0.976562 0.757812 0.851562 0.804688 0.699219 0.804688 L 0.242188 0.804688 L 0.242188 0.382812 L 0.46875 0.382812 C 0.582031 0.382812 0.664062 0.363281 0.71875 0.324219 C 0.769531 0.285156 0.824219 0.195312 0.878906 0.0546875 L 0.921875 -0.0585938 L 0.113281 -2.128906 L 0.695312 -2.128906 L 1.183594 -0.746094 L 1.648438 -2.128906 L 2.234375 -2.128906 Z "/>
</g>
<g id="glyph-0-15">
<path d="M 1.882812 -2.0625 L 1.882812 -1.574219 C 1.78125 -1.640625 1.671875 -1.691406 1.5625 -1.722656 C 1.453125 -1.757812 1.339844 -1.773438 1.230469 -1.773438 C 1.105469 -1.773438 1.011719 -1.753906 0.949219 -1.71875 C 0.886719 -1.683594 0.851562 -1.628906 0.851562 -1.558594 C 0.851562 -1.457031 0.988281 -1.375 1.257812 -1.3125 L 1.28125 -1.308594 L 1.441406 -1.269531 C 1.644531 -1.222656 1.789062 -1.144531 1.886719 -1.035156 C 1.980469 -0.929688 2.027344 -0.785156 2.027344 -0.601562 C 2.027344 -0.382812 1.953125 -0.21875 1.8125 -0.109375 C 1.667969 0 1.449219 0.0546875 1.164062 0.0546875 C 1.035156 0.0546875 0.902344 0.0429688 0.769531 0.0234375 C 0.636719 0 0.5 -0.0351562 0.359375 -0.078125 L 0.359375 -0.5625 C 0.484375 -0.492188 0.609375 -0.441406 0.734375 -0.40625 C 0.863281 -0.367188 0.988281 -0.347656 1.105469 -0.347656 C 1.234375 -0.347656 1.335938 -0.367188 1.402344 -0.40625 C 1.46875 -0.445312 1.503906 -0.5 1.503906 -0.570312 C 1.503906 -0.640625 1.480469 -0.695312 1.429688 -0.734375 C 1.382812 -0.773438 1.269531 -0.8125 1.09375 -0.855469 L 0.9375 -0.890625 C 0.726562 -0.9375 0.570312 -1.015625 0.472656 -1.117188 C 0.375 -1.21875 0.328125 -1.355469 0.328125 -1.527344 C 0.328125 -1.734375 0.402344 -1.894531 0.550781 -2.007812 C 0.699219 -2.121094 0.90625 -2.179688 1.171875 -2.179688 C 1.292969 -2.179688 1.414062 -2.167969 1.535156 -2.148438 C 1.652344 -2.128906 1.769531 -2.101562 1.882812 -2.0625 Z "/>
</g>
<g id="glyph-0-16">
<path d="M 0.417969 -2.128906 L 1.519531 -2.128906 L 1.519531 -0.425781 L 2.210938 -0.425781 L 2.210938 0 L 0.273438 0 L 0.273438 -0.425781 L 0.964844 -0.425781 L 0.964844 -1.699219 L 0.417969 -1.699219 Z M 0.964844 -3.164062 L 1.519531 -3.164062 L 1.519531 -2.511719 L 0.964844 -2.511719 Z "/>
</g>
<g id="glyph-0-17">
<path d="M 0.867188 -2.363281 L 0.867188 -1.53125 L 1.097656 -1.53125 C 1.28125 -1.53125 1.410156 -1.5625 1.484375 -1.625 C 1.558594 -1.6875 1.59375 -1.796875 1.59375 -1.949219 C 1.59375 -2.101562 1.558594 -2.210938 1.484375 -2.273438 C 1.410156 -2.335938 1.28125 -2.363281 1.097656 -2.363281 Z M 0.308594 -2.835938 L 1.078125 -2.835938 C 1.46875 -2.835938 1.75 -2.765625 1.921875 -2.625 C 2.09375 -2.488281 2.179688 -2.261719 2.179688 -1.949219 C 2.179688 -1.636719 2.09375 -1.410156 1.921875 -1.269531 C 1.75 -1.132812 1.46875 -1.0625 1.078125 -1.0625 L 0.867188 -1.0625 L 0.867188 0 L 0.308594 0 Z "/>
</g>
<g id="glyph-0-18">
<path d="M 0.835938 -0.539062 L 1.34375 -0.539062 L 1.34375 0 L 0.835938 0 Z M 1.34375 -0.761719 L 0.835938 -0.761719 L 0.835938 -1.054688 C 0.835938 -1.179688 0.855469 -1.285156 0.894531 -1.375 C 0.933594 -1.464844 1.003906 -1.558594 1.105469 -1.65625 L 1.277344 -1.824219 C 1.355469 -1.902344 1.410156 -1.964844 1.4375 -2.015625 C 1.464844 -2.066406 1.480469 -2.121094 1.480469 -2.175781 C 1.480469 -2.261719 1.453125 -2.324219 1.394531 -2.367188 C 1.335938 -2.410156 1.25 -2.429688 1.132812 -2.429688 C 1.027344 -2.429688 0.914062 -2.410156 0.796875 -2.363281 C 0.683594 -2.320312 0.5625 -2.25 0.441406 -2.164062 L 0.441406 -2.671875 C 0.566406 -2.742188 0.691406 -2.796875 0.820312 -2.832031 C 0.945312 -2.867188 1.074219 -2.886719 1.203125 -2.886719 C 1.457031 -2.886719 1.660156 -2.828125 1.804688 -2.707031 C 1.949219 -2.589844 2.023438 -2.425781 2.023438 -2.214844 C 2.023438 -2.121094 2 -2.03125 1.957031 -1.949219 C 1.914062 -1.867188 1.835938 -1.765625 1.714844 -1.648438 L 1.546875 -1.484375 C 1.460938 -1.402344 1.40625 -1.332031 1.382812 -1.28125 C 1.359375 -1.226562 1.347656 -1.160156 1.347656 -1.085938 C 1.347656 -1.074219 1.347656 -1.058594 1.34375 -1.042969 C 1.34375 -1.027344 1.34375 -1.011719 1.34375 -0.996094 Z "/>
</g>
</g>
<image id="source-511" x="0" y="0" width="0" height="0"/>
<mask id="mask-0">
<use xlink:href="#source-511"/>
</mask>
</defs>
<g fill="rgb(100%, 54.901961%, 0%)" fill-opacity="1">
<use xlink:href="#glyph-0-0" x="30" y="23.610352"/>
<use xlink:href="#glyph-0-1" x="32" y="23.610352"/>
<use xlink:href="#glyph-0-2" x="34" y="23.610352"/>
<use xlink:href="#glyph-0-3" x="36" y="23.610352"/>
<use xlink:href="#glyph-0-4" x="38" y="23.610352"/>
<use xlink:href="#glyph-0-5" x="40" y="23.610352"/>
<use xlink:href="#glyph-0-6" x="42" y="23.610352"/>
<use xlink:href="#glyph-0-4" x="44" y="23.610352"/>
<use xlink:href="#glyph-0-7" x="46" y="23.610352"/>
<use xlink:href="#glyph-0-8" x="48" y="23.610352"/>
<use xlink:href="#glyph-0-8" x="50" y="23.610352"/>
<use xlink:href="#glyph-0-9" x="52" y="23.610352"/>
<use xlink:href="#glyph-0-10" x="54" y="23.610352"/>
<use xlink:href="#glyph-0-11" x="56" y="23.610352"/>
<use xlink:href="#glyph-0-3" x="58" y="23.610352"/>
<use xlink:href="#glyph-0-4" x="60" y="23.610352"/>
<use xlink:href="#glyph-0-7" x="62" y="23.610352"/>
<use xlink:href="#glyph-0-12" x="64" y="23.610352"/>
<use xlink:href="#glyph-0-1" x="66" y="23.610352"/>
<use xlink:href="#glyph-0-13" x="68" y="23.610352"/>
<use xlink:href="#glyph-0-14" x="70" y="23.610352"/>
<use xlink:href="#glyph-0-15" x="72" y="23.610352"/>
<use xlink:href="#glyph-0-16" x="74" y="23.610352"/>
<use xlink:href="#glyph-0-15" x="76" y="23.610352"/>
<use xlink:href="#glyph-0-4" x="78" y="23.610352"/>
<use xlink:href="#glyph-0-17" x="80" y="23.610352"/>
<use xlink:href="#glyph-0-13" x="82" y="23.610352"/>
<use xlink:href="#glyph-0-1" x="84" y="23.610352"/>
<use xlink:href="#glyph-0-12" x="86" y="23.610352"/>
<use xlink:href="#glyph-0-18" x="88" y="23.610352"/>
</g>
</svg>
