<?xml version="1.0" encoding="UTF-8"?>
<svg xmlns="http://www.w3.org/2000/svg" xmlns:xlink="http://www.w3.org/1999/xlink" width="854" height="480" viewBox="0 0 854 480">
<defs>
<g>
<g id="glyph-0-0">
<path d="M 0.667969 -4.042969 C 0.667969 -5.445312 0.890625 -6.496094 1.335938 -7.195312 C 1.78125 -7.894531 2.449219 -8.246094 3.339844 -8.246094 C 4.238281 -8.246094 4.910156 -7.898438 5.355469 -7.199219 C 5.800781 -6.5 6.023438 -5.449219 6.023438 -4.042969 C 6.023438 -2.640625 5.800781 -1.585938 5.355469 -0.890625 C 4.910156 -0.191406 4.238281 0.15625 3.339844 0.15625 C 2.449219 0.15625 1.78125 -0.191406 1.335938 -0.890625 C 0.890625 -1.589844 0.667969 -2.640625 0.667969 -4.042969 Z M 2.535156 -1.878906 C 2.703125 -1.425781 2.972656 -1.199219 3.339844 -1.199219 C 3.714844 -1.199219 3.984375 -1.425781 4.15625 -1.878906 C 4.324219 -2.328125 4.410156 -3.050781 4.410156 -4.042969 C 4.410156 -4.417969 4.398438 -4.753906 4.371094 -5.050781 L 2.480469 -2.035156 C 2.496094 -1.976562 2.515625 -1.925781 2.535156 -1.878906 Z M 3.339844 -6.890625 C 2.972656 -6.890625 2.703125 -6.664062 2.535156 -6.210938 C 2.363281 -5.757812 2.277344 -5.035156 2.277344 -4.042969 C 2.277344 -3.734375 2.285156 -3.453125 2.300781 -3.199219 L 4.167969 -6.179688 C 4.164062 -6.191406 4.160156 -6.199219 4.15625 -6.210938 C 3.984375 -6.664062 3.714844 -6.890625 3.339844 -6.890625 Z "/>
</g>
<g id="glyph-0-1">
<path d="M 0.179688 -6.03125 C 0.179688 -6.515625 0.347656 -6.925781 0.683594 -7.265625 C 1.019531 -7.601562 1.429688 -7.769531 1.910156 -7.769531 C 2.390625 -7.769531 2.800781 -7.597656 3.136719 -7.261719 C 3.476562 -6.921875 3.644531 -6.511719 3.644531 -6.03125 C 3.644531 -5.550781 3.476562 -5.144531 3.136719 -4.804688 C 2.800781 -4.46875 2.390625 -4.300781 1.910156 -4.300781 C 1.429688 -4.300781 1.019531 -4.46875 0.683594 -4.804688 C 0.347656 -5.136719 0.179688 -5.546875 0.179688 -6.03125 Z M 1.910156 -6.777344 C 1.703125 -6.777344 1.527344 -6.703125 1.382812 -6.5625 C 1.238281 -6.417969 1.167969 -6.242188 1.167969 -6.03125 C 1.167969 -5.824219 1.238281 -5.648438 1.382812 -5.503906 C 1.527344 -5.359375 1.703125 -5.289062 1.910156 -5.289062 C 2.121094 -5.289062 2.296875 -5.359375 2.4375 -5.503906 C 2.582031 -5.648438 2.652344 -5.824219 2.652344 -6.03125 C 2.652344 -6.238281 2.582031 -6.414062 2.4375 -6.558594 C 2.292969 -6.703125 2.117188 -6.777344 1.910156 -6.777344 Z M 0.464844 -3.042969 L 6.121094 -5.3125 L 6.34375 -4.789062 L 0.65625 -2.523438 Z M 3.148438 -1.730469 C 3.148438 -2.214844 3.3125 -2.625 3.648438 -2.960938 C 3.984375 -3.296875 4.390625 -3.464844 4.878906 -3.464844 C 5.355469 -3.464844 5.761719 -3.296875 6.101562 -2.960938 C 6.441406 -2.621094 6.613281 -2.210938 6.613281 -1.730469 C 6.613281 -1.253906 6.441406 -0.84375 6.101562 -0.507812 C 5.761719 -0.167969 5.355469 0 4.878906 0 C 4.394531 0 3.984375 -0.167969 3.648438 -0.5 C 3.3125 -0.835938 3.148438 -1.246094 3.148438 -1.730469 Z M 4.867188 -2.480469 C 4.664062 -2.480469 4.492188 -2.40625 4.347656 -2.261719 C 4.207031 -2.117188 4.132812 -1.941406 4.132812 -1.730469 C 4.132812 -1.519531 4.203125 -1.34375 4.34375 -1.203125 C 4.484375 -1.058594 4.660156 -0.988281 4.867188 -0.988281 C 5.078125 -0.988281 5.253906 -1.058594 5.402344 -1.203125 C 5.546875 -1.347656 5.621094 -1.523438 5.621094 -1.730469 C 5.621094 -1.9375 5.546875 -2.113281 5.398438 -2.257812 C 5.25 -2.40625 5.074219 -2.480469 4.867188 -2.480469 Z "/>
</g>
<g id="glyph-0-2">
<rect x="0" y="0" width="0" height="0" mask="url(#mask-0)"/>
</g>
<g id="glyph-0-3">
<path d="M 5.757812 -0.308594 C 5.488281 -0.152344 5.199219 -0.0351562 4.894531 0.0390625 C 4.585938 0.117188 4.253906 0.15625 3.902344 0.15625 C 2.964844 0.15625 2.230469 -0.125 1.703125 -0.6875 C 1.175781 -1.253906 0.910156 -2.035156 0.910156 -3.03125 C 0.910156 -4.035156 1.175781 -4.816406 1.707031 -5.382812 C 2.238281 -5.949219 2.976562 -6.234375 3.910156 -6.234375 C 4.238281 -6.234375 4.550781 -6.195312 4.851562 -6.121094 C 5.152344 -6.042969 5.457031 -5.925781 5.757812 -5.765625 L 5.757812 -4.3125 C 5.523438 -4.511719 5.269531 -4.664062 4.992188 -4.769531 C 4.714844 -4.878906 4.429688 -4.929688 4.132812 -4.929688 C 3.617188 -4.929688 3.21875 -4.765625 2.941406 -4.4375 C 2.664062 -4.109375 2.523438 -3.640625 2.523438 -3.03125 C 2.523438 -2.425781 2.660156 -1.957031 2.941406 -1.632812 C 3.21875 -1.308594 3.617188 -1.144531 4.132812 -1.144531 C 4.441406 -1.144531 4.730469 -1.195312 4.996094 -1.300781 C 5.265625 -1.402344 5.515625 -1.558594 5.757812 -1.769531 Z "/>
</g>
<g id="glyph-0-4">
<path d="M 3.339844 -4.929688 C 2.960938 -4.929688 2.664062 -4.765625 2.445312 -4.429688 C 2.230469 -4.09375 2.121094 -3.628906 2.121094 -3.03125 C 2.121094 -2.433594 2.230469 -1.96875 2.445312 -1.636719 C 2.664062 -1.300781 2.960938 -1.132812 3.339844 -1.132812 C 3.722656 -1.132812 4.023438 -1.300781 4.242188 -1.636719 C 4.460938 -1.96875 4.566406 -2.4375 4.566406 -3.03125 C 4.566406 -3.628906 4.460938 -4.09375 4.242188 -4.429688 C 4.023438 -4.765625 3.726562 -4.929688 3.339844 -4.929688 Z M 0.53125 -3.03125 C 0.53125 -4.011719 0.785156 -4.789062 1.292969 -5.363281 C 1.800781 -5.9375 2.484375 -6.222656 3.339844 -6.222656 C 4.203125 -6.222656 4.886719 -5.9375 5.394531 -5.363281 C 5.902344 -4.789062 6.15625 -4.011719 6.15625 -3.03125 C 6.15625 -2.050781 5.902344 -1.277344 5.394531 -0.703125 C 4.886719 -0.128906 4.203125 0.15625 3.339844 0.15625 C 2.484375 0.15625 1.800781 -0.128906 1.292969 -0.703125 C 0.785156 -1.277344 0.53125 -2.050781 0.53125 -3.03125 Z "/>
</g>
<g id="glyph-0-5">
<path d="M 5.808594 -3.945312 L 5.808594 0 L 4.230469 0 L 4.230469 -3.699219 C 4.230469 -4.140625 4.167969 -4.457031 4.042969 -4.648438 C 3.917969 -4.835938 3.714844 -4.929688 3.433594 -4.929688 C 3.148438 -4.929688 2.921875 -4.804688 2.757812 -4.546875 C 2.59375 -4.289062 2.511719 -3.933594 2.511719 -3.476562 L 2.511719 0 L 0.933594 0 L 0.933594 -6.074219 L 2.511719 -6.074219 L 2.511719 -5.164062 C 2.625 -5.5 2.816406 -5.761719 3.085938 -5.945312 C 3.359375 -6.128906 3.683594 -6.222656 4.070312 -6.222656 C 4.644531 -6.222656 5.078125 -6.03125 5.371094 -5.648438 C 5.664062 -5.269531 5.808594 -4.699219 5.808594 -3.945312 Z "/>
</g>
<g id="glyph-0-6">
<path d="M 4.007812 -6.609375 L 4.007812 -6.074219 L 5.875 -6.074219 L 5.875 -4.855469 L 4.007812 -4.855469 L 4.007812 0 L 2.417969 0 L 2.417969 -4.855469 L 0.945312 -4.855469 L 0.945312 -6.074219 L 2.417969 -6.074219 L 2.417969 -6.5 C 2.417969 -7.230469 2.570312 -7.734375 2.875 -8.019531 C 3.179688 -8.300781 3.742188 -8.441406 4.566406 -8.441406 L 5.875 -8.441406 L 5.875 -7.21875 L 4.632812 -7.21875 C 4.394531 -7.21875 4.230469 -7.175781 4.148438 -7.089844 C 4.0625 -7.003906 4.015625 -6.84375 4.007812 -6.609375 Z "/>
</g>
<g id="glyph-0-7">
<path d="M 1.199219 -6.074219 L 4.34375 -6.074219 L 4.34375 -1.21875 L 6.320312 -1.21875 L 6.320312 0 L 0.777344 0 L 0.777344 -1.21875 L 2.757812 -1.21875 L 2.757812 -4.855469 L 1.199219 -4.855469 Z M 2.757812 -9.03125 L 4.34375 -9.03125 L 4.34375 -7.175781 L 2.757812 -7.175781 Z "/>
</g>
<g id="glyph-0-8">
<path d="M 4.292969 -5.214844 L 4.292969 -8.441406 L 5.875 -8.441406 L 5.875 0 L 4.292969 0 L 4.292969 -0.902344 C 4.121094 -0.550781 3.902344 -0.285156 3.632812 -0.109375 C 3.363281 0.0703125 3.046875 0.15625 2.679688 0.15625 C 1.984375 0.15625 1.445312 -0.121094 1.0625 -0.679688 C 0.679688 -1.234375 0.488281 -2.019531 0.488281 -3.03125 C 0.488281 -4.058594 0.683594 -4.847656 1.070312 -5.398438 C 1.460938 -5.949219 2.015625 -6.222656 2.734375 -6.222656 C 3.058594 -6.222656 3.351562 -6.136719 3.609375 -5.96875 C 3.867188 -5.800781 4.097656 -5.550781 4.292969 -5.214844 Z M 2.078125 -3.023438 C 2.078125 -2.4375 2.175781 -1.976562 2.371094 -1.644531 C 2.566406 -1.3125 2.835938 -1.144531 3.179688 -1.144531 C 3.523438 -1.144531 3.792969 -1.3125 3.992188 -1.644531 C 4.191406 -1.976562 4.292969 -2.4375 4.292969 -3.023438 C 4.292969 -3.609375 4.191406 -4.066406 3.992188 -4.398438 C 3.792969 -4.730469 3.523438 -4.898438 3.179688 -4.898438 C 2.835938 -4.898438 2.566406 -4.730469 2.371094 -4.398438 C 2.175781 -4.066406 2.078125 -3.609375 2.078125 -3.023438 Z "/>
</g>
<g id="glyph-0-9">
<path d="M 5.976562 -0.296875 C 5.609375 -0.144531 5.234375 -0.03125 4.851562 0.0429688 C 4.46875 0.121094 4.0625 0.15625 3.632812 0.15625 C 2.617188 0.15625 1.839844 -0.113281 1.304688 -0.660156 C 0.769531 -1.203125 0.5 -1.988281 0.5 -3.011719 C 0.5 -4.003906 0.757812 -4.785156 1.273438 -5.359375 C 1.792969 -5.933594 2.496094 -6.222656 3.390625 -6.222656 C 4.292969 -6.222656 4.988281 -5.957031 5.488281 -5.421875 C 5.984375 -4.890625 6.234375 -4.136719 6.234375 -3.167969 L 6.234375 -2.523438 L 2.117188 -2.523438 C 2.121094 -2.046875 2.261719 -1.6875 2.539062 -1.453125 C 2.816406 -1.21875 3.234375 -1.101562 3.785156 -1.101562 C 4.152344 -1.101562 4.511719 -1.152344 4.867188 -1.257812 C 5.222656 -1.363281 5.589844 -1.53125 5.976562 -1.757812 Z M 4.632812 -3.714844 C 4.625 -4.136719 4.519531 -4.453125 4.308594 -4.667969 C 4.101562 -4.882812 3.796875 -4.992188 3.390625 -4.992188 C 3.023438 -4.992188 2.734375 -4.878906 2.515625 -4.65625 C 2.300781 -4.433594 2.171875 -4.121094 2.132812 -3.710938 Z "/>
</g>
</g>
<image id="source-7" x="0" y="0" width="0" height="0"/>
<mask id="mask-0">
<use xlink:href="#source-7"/>
</mask>
</defs>
<g fill="rgb(22.352941%, 100%, 7.843137%)" fill-opacity="1">
<use xlink:href="#glyph-0-0" x="30" y="30.3125"/>
<use xlink:href="#glyph-0-1" x="37" y="30.3125"/>
<use xlink:href="#glyph-0-2" x="44" y="30.3125"/>
<use xlink:href="#glyph-0-3" x="51" y="30.3125"/>
<use xlink:href="#glyph-0-4" x="58" y="30.3125"/>
<use xlink:href="#glyph-0-5" x="65" y="30.3125"/>
<use xlink:href="#glyph-0-6" x="72" y="30.3125"/>
<use xlink:href="#glyph-0-7" x="79" y="30.3125"/>
<use xlink:href="#glyph-0-8" x="86" y="30.3125"/>
<use xlink:href="#glyph-0-9" x="93" y="30.3125"/>
<use xlink:href="#glyph-0-5" x="100" y="30.3125"/>
<use xlink:href="#glyph-0-3" x="107" y="30.3125"/>
<use xlink:href="#glyph-0-9" x="114" y="30.3125"/>
</g>
</svg>
