<?xml version="1.0" encoding="UTF-8"?>
<svg xmlns="http://www.w3.org/2000/svg" xmlns:xlink="http://www.w3.org/1999/xlink" width="854" height="480" viewBox="0 0 854 480">
<defs>
<g>
<g id="glyph-0-0">
<path d="M 0.105469 -4.441406 L 0.914062 -4.441406 L 1.683594 -2.179688 L 2.457031 -4.441406 L 3.265625 -4.441406 L 3.265625 0 L 2.710938 0 L 2.710938 -3.921875 L 1.914062 -1.585938 L 1.457031 -1.585938 L 0.664062 -3.921875 L 0.664062 0 L 0.105469 0 Z "/>
</g>
<g id="glyph-0-1">
<path d="M 3.339844 -1.945312 L 3.339844 -1.675781 L 0.964844 -1.675781 L 0.964844 -1.660156 C 0.949219 -1.203125 1.035156 -0.875 1.226562 -0.675781 C 1.414062 -0.476562 1.683594 -0.378906 2.027344 -0.378906 C 2.203125 -0.378906 2.386719 -0.40625 2.578125 -0.460938 C 2.769531 -0.519531 2.972656 -0.601562 3.1875 -0.714844 L 3.1875 -0.171875 C 2.980469 -0.0859375 2.777344 -0.0195312 2.585938 0.0234375 C 2.390625 0.0664062 2.203125 0.0859375 2.023438 0.0859375 C 1.503906 0.0859375 1.097656 -0.0703125 0.804688 -0.378906 C 0.511719 -0.691406 0.367188 -1.121094 0.367188 -1.667969 C 0.367188 -2.199219 0.511719 -2.625 0.796875 -2.945312 C 1.082031 -3.261719 1.464844 -3.421875 1.941406 -3.421875 C 2.367188 -3.421875 2.703125 -3.277344 2.949219 -2.988281 C 3.195312 -2.699219 3.324219 -2.351562 3.339844 -1.945312 Z M 2.792969 -2.105469 C 2.769531 -2.335938 2.683594 -2.535156 2.539062 -2.703125 C 2.394531 -2.871094 2.1875 -2.957031 1.917969 -2.957031 C 1.652344 -2.957031 1.4375 -2.871094 1.265625 -2.695312 C 1.09375 -2.519531 1 -2.320312 0.984375 -2.101562 Z "/>
</g>
<g id="glyph-0-2">
<path d="M 3.445312 -2.652344 C 3.328125 -2.742188 3.210938 -2.808594 3.089844 -2.851562 C 2.96875 -2.894531 2.832031 -2.914062 2.6875 -2.914062 C 2.347656 -2.914062 2.085938 -2.808594 1.902344 -2.59375 C 1.722656 -2.378906 1.632812 -2.066406 1.632812 -1.660156 L 1.632812 0 L 1.078125 0 L 1.078125 -3.339844 L 1.632812 -3.339844 L 1.632812 -2.6875 C 1.722656 -2.925781 1.863281 -3.105469 2.054688 -3.234375 C 2.246094 -3.359375 2.46875 -3.421875 2.730469 -3.421875 C 2.867188 -3.421875 2.992188 -3.40625 3.109375 -3.371094 C 3.226562 -3.335938 3.339844 -3.285156 3.445312 -3.214844 Z "/>
</g>
<g id="glyph-0-3">
<path d="M 2.558594 -1.699219 C 2.558594 -2.109375 2.492188 -2.421875 2.359375 -2.636719 C 2.222656 -2.851562 2.027344 -2.957031 1.773438 -2.957031 C 1.503906 -2.957031 1.300781 -2.851562 1.15625 -2.636719 C 1.015625 -2.421875 0.945312 -2.109375 0.945312 -1.699219 C 0.945312 -1.285156 1.015625 -0.972656 1.160156 -0.757812 C 1.300781 -0.542969 1.507812 -0.433594 1.777344 -0.433594 C 2.03125 -0.433594 2.222656 -0.542969 2.359375 -0.757812 C 2.492188 -0.976562 2.558594 -1.289062 2.558594 -1.699219 Z M 3.109375 -0.214844 C 3.109375 0.285156 2.992188 0.667969 2.753906 0.925781 C 2.515625 1.183594 2.167969 1.3125 1.710938 1.3125 C 1.558594 1.3125 1.398438 1.300781 1.234375 1.269531 C 1.070312 1.242188 0.90625 1.203125 0.738281 1.148438 L 0.738281 0.605469 C 0.933594 0.695312 1.113281 0.765625 1.269531 0.808594 C 1.429688 0.851562 1.578125 0.875 1.710938 0.875 C 2.007812 0.875 2.222656 0.792969 2.355469 0.632812 C 2.492188 0.472656 2.558594 0.214844 2.558594 -0.132812 L 2.558594 -0.53125 C 2.472656 -0.34375 2.351562 -0.203125 2.203125 -0.113281 C 2.050781 -0.0234375 1.867188 0.0234375 1.648438 0.0234375 C 1.257812 0.0234375 0.949219 -0.132812 0.714844 -0.445312 C 0.484375 -0.757812 0.367188 -1.175781 0.367188 -1.699219 C 0.367188 -2.222656 0.484375 -2.640625 0.714844 -2.953125 C 0.949219 -3.265625 1.261719 -3.421875 1.648438 -3.421875 C 1.863281 -3.421875 2.046875 -3.378906 2.195312 -3.292969 C 2.34375 -3.207031 2.464844 -3.074219 2.558594 -2.898438 L 2.558594 -3.328125 L 3.109375 -3.328125 Z "/>
</g>
<g id="glyph-0-4">
<rect x="0" y="0" width="0" height="0" mask="url(#mask-0)"/>
</g>
<g id="glyph-0-5">
<path d="M 3.480469 -1.550781 L 2.613281 -0.683594 L 2.34375 -0.953125 L 2.824219 -1.429688 L 0.195312 -1.429688 L 0.195312 -1.917969 L 2.824219 -1.917969 L 2.34375 -2.394531 L 2.613281 -2.664062 L 3.480469 -1.796875 Z "/>
</g>
<g id="glyph-0-6">
<path d="M 2.558594 -2.914062 L 2.558594 -4.640625 L 3.109375 -4.640625 L 3.109375 0 L 2.558594 0 L 2.558594 -0.421875 C 2.46875 -0.257812 2.347656 -0.128906 2.195312 -0.0429688 C 2.042969 0.0429688 1.867188 0.0859375 1.667969 0.0859375 C 1.265625 0.0859375 0.945312 -0.0703125 0.714844 -0.382812 C 0.484375 -0.695312 0.367188 -1.128906 0.367188 -1.679688 C 0.367188 -2.222656 0.484375 -2.648438 0.714844 -2.957031 C 0.949219 -3.265625 1.265625 -3.421875 1.667969 -3.421875 C 1.867188 -3.421875 2.046875 -3.378906 2.199219 -3.292969 C 2.351562 -3.207031 2.472656 -3.078125 2.558594 -2.914062 Z M 0.945312 -1.667969 C 0.945312 -1.242188 1.011719 -0.921875 1.148438 -0.703125 C 1.285156 -0.488281 1.484375 -0.378906 1.75 -0.378906 C 2.011719 -0.378906 2.214844 -0.488281 2.351562 -0.707031 C 2.492188 -0.925781 2.558594 -1.246094 2.558594 -1.667969 C 2.558594 -2.089844 2.492188 -2.414062 2.351562 -2.628906 C 2.214844 -2.847656 2.011719 -2.957031 1.75 -2.957031 C 1.484375 -2.957031 1.285156 -2.847656 1.148438 -2.632812 C 1.011719 -2.414062 0.945312 -2.09375 0.945312 -1.667969 Z "/>
</g>
<g id="glyph-0-7">
<path d="M 0.296875 -3.339844 L 0.867188 -3.339844 L 1.835938 -0.535156 L 2.808594 -3.339844 L 3.378906 -3.339844 L 2.191406 0 L 1.484375 0 Z "/>
</g>
<g id="glyph-0-8">
<path d="M 2.144531 -1.207031 C 2.144531 -0.960938 2.191406 -0.777344 2.28125 -0.652344 C 2.371094 -0.527344 2.503906 -0.460938 2.683594 -0.460938 L 3.324219 -0.460938 L 3.324219 0 L 2.628906 0 C 2.300781 0 2.046875 -0.105469 1.867188 -0.316406 C 1.6875 -0.523438 1.597656 -0.824219 1.597656 -1.207031 L 1.597656 -4.230469 L 0.714844 -4.230469 L 0.714844 -4.660156 L 2.144531 -4.660156 Z "/>
</g>
<g id="glyph-0-9">
<path d="M 1.835938 -2.957031 C 1.558594 -2.957031 1.347656 -2.847656 1.207031 -2.632812 C 1.0625 -2.414062 0.992188 -2.09375 0.992188 -1.667969 C 0.992188 -1.246094 1.0625 -0.921875 1.207031 -0.707031 C 1.347656 -0.488281 1.558594 -0.378906 1.835938 -0.378906 C 2.117188 -0.378906 2.332031 -0.488281 2.472656 -0.707031 C 2.617188 -0.925781 2.6875 -1.246094 2.6875 -1.667969 C 2.6875 -2.09375 2.617188 -2.414062 2.472656 -2.632812 C 2.328125 -2.847656 2.117188 -2.957031 1.835938 -2.957031 Z M 1.835938 -3.421875 C 2.300781 -3.421875 2.65625 -3.273438 2.902344 -2.972656 C 3.148438 -2.671875 3.269531 -2.238281 3.269531 -1.667969 C 3.269531 -1.097656 3.148438 -0.660156 2.902344 -0.363281 C 2.65625 -0.0625 2.304688 0.0859375 1.835938 0.0859375 C 1.375 0.0859375 1.019531 -0.0625 0.777344 -0.363281 C 0.53125 -0.664062 0.410156 -1.097656 0.410156 -1.667969 C 0.410156 -2.238281 0.53125 -2.671875 0.777344 -2.972656 C 1.019531 -3.273438 1.375 -3.421875 1.835938 -3.421875 Z "/>
</g>
<g id="glyph-0-10">
<path d="M 1.117188 -0.421875 L 1.117188 1.269531 L 0.566406 1.269531 L 0.566406 -3.339844 L 1.117188 -3.339844 L 1.117188 -2.914062 C 1.210938 -3.078125 1.332031 -3.207031 1.484375 -3.292969 C 1.636719 -3.378906 1.8125 -3.421875 2.011719 -3.421875 C 2.414062 -3.421875 2.730469 -3.265625 2.960938 -2.953125 C 3.191406 -2.640625 3.304688 -2.207031 3.304688 -1.65625 C 3.304688 -1.113281 3.191406 -0.6875 2.960938 -0.378906 C 2.730469 -0.0703125 2.414062 0.0859375 2.011719 0.0859375 C 1.808594 0.0859375 1.628906 0.0429688 1.476562 -0.0429688 C 1.324219 -0.128906 1.207031 -0.253906 1.117188 -0.421875 Z M 2.730469 -1.667969 C 2.730469 -2.09375 2.664062 -2.414062 2.527344 -2.632812 C 2.394531 -2.847656 2.195312 -2.957031 1.929688 -2.957031 C 1.664062 -2.957031 1.460938 -2.847656 1.324219 -2.628906 C 1.1875 -2.410156 1.117188 -2.089844 1.117188 -1.667969 C 1.117188 -1.246094 1.1875 -0.925781 1.324219 -0.707031 C 1.460938 -0.488281 1.664062 -0.378906 1.929688 -0.378906 C 2.195312 -0.378906 2.394531 -0.488281 2.527344 -0.703125 C 2.664062 -0.921875 2.730469 -1.242188 2.730469 -1.667969 Z "/>
</g>
</g>
<image id="source-105" x="0" y="0" width="0" height="0"/>
<mask id="mask-0">
<use xlink:href="#source-105"/>
</mask>
</defs>
<g fill="rgb(0%, 96.078431%, 100%)" fill-opacity="1">
<use xlink:href="#glyph-0-0" x="30" y="25.671875"/>
<use xlink:href="#glyph-0-1" x="34" y="25.671875"/>
<use xlink:href="#glyph-0-2" x="38" y="25.671875"/>
<use xlink:href="#glyph-0-3" x="42" y="25.671875"/>
<use xlink:href="#glyph-0-1" x="46" y="25.671875"/>
<use xlink:href="#glyph-0-4" x="50" y="25.671875"/>
<use xlink:href="#glyph-0-5" x="54" y="25.671875"/>
<use xlink:href="#glyph-0-4" x="58" y="25.671875"/>
<use xlink:href="#glyph-0-6" x="62" y="25.671875"/>
<use xlink:href="#glyph-0-1" x="66" y="25.671875"/>
<use xlink:href="#glyph-0-7" x="70" y="25.671875"/>
<use xlink:href="#glyph-0-1" x="74" y="25.671875"/>
<use xlink:href="#glyph-0-8" x="78" y="25.671875"/>
<use xlink:href="#glyph-0-9" x="82" y="25.671875"/>
<use xlink:href="#glyph-0-10" x="86" y="25.671875"/>
</g>
</svg>
