<?xml version="1.0" encoding="UTF-8"?>
<svg xmlns="http://www.w3.org/2000/svg" xmlns:xlink="http://www.w3.org/1999/xlink" width="854" height="480" viewBox="0 0 854 480">
<defs>
<g>
<g id="glyph-0-0">
<path d="M 3.183594 -4.085938 C 2.253906 -4.441406 1.625 -4.8125 1.296875 -5.199219 C 0.96875 -5.589844 0.804688 -6.113281 0.804688 -6.769531 C 0.804688 -7.613281 1.074219 -8.277344 1.617188 -8.757812 C 2.15625 -9.242188 2.898438 -9.484375 3.84375 -9.484375 C 4.273438 -9.484375 4.699219 -9.433594 5.128906 -9.335938 C 5.558594 -9.238281 5.980469 -9.09375 6.402344 -8.902344 L 6.402344 -7.105469 C 6.007812 -7.382812 5.605469 -7.597656 5.195312 -7.742188 C 4.789062 -7.886719 4.386719 -7.960938 3.988281 -7.960938 C 3.542969 -7.960938 3.199219 -7.871094 2.964844 -7.691406 C 2.726562 -7.511719 2.609375 -7.257812 2.609375 -6.925781 C 2.609375 -6.667969 2.695312 -6.453125 2.867188 -6.285156 C 3.039062 -6.117188 3.398438 -5.929688 3.949219 -5.726562 L 4.742188 -5.429688 C 5.492188 -5.152344 6.042969 -4.789062 6.394531 -4.335938 C 6.75 -3.882812 6.925781 -3.3125 6.925781 -2.621094 C 6.925781 -1.679688 6.648438 -0.976562 6.09375 -0.515625 C 5.539062 -0.0507812 4.699219 0.179688 3.574219 0.179688 C 3.113281 0.179688 2.652344 0.125 2.1875 0.015625 C 1.722656 -0.09375 1.273438 -0.257812 0.84375 -0.472656 L 0.84375 -2.378906 C 1.332031 -2.027344 1.808594 -1.769531 2.269531 -1.597656 C 2.726562 -1.425781 3.183594 -1.339844 3.632812 -1.339844 C 4.085938 -1.339844 4.4375 -1.445312 4.683594 -1.648438 C 4.933594 -1.855469 5.058594 -2.144531 5.058594 -2.515625 C 5.058594 -2.792969 4.976562 -3.039062 4.808594 -3.246094 C 4.644531 -3.457031 4.402344 -3.621094 4.085938 -3.742188 Z "/>
</g>
<g id="glyph-0-1">
<path d="M 4.304688 -8.972656 L 4.304688 -6.988281 L 6.695312 -6.988281 L 6.695312 -5.582031 L 4.304688 -5.582031 L 4.304688 -2.277344 C 4.304688 -1.964844 4.378906 -1.742188 4.53125 -1.605469 C 4.683594 -1.472656 4.9375 -1.402344 5.289062 -1.402344 L 6.695312 -1.402344 L 6.695312 0 L 5.160156 0 C 4.113281 0 3.402344 -0.167969 3.03125 -0.503906 C 2.660156 -0.835938 2.476562 -1.457031 2.476562 -2.363281 L 2.476562 -5.582031 L 0.691406 -5.582031 L 0.691406 -6.988281 L 2.476562 -6.988281 L 2.476562 -8.972656 Z "/>
</g>
<g id="glyph-0-2">
<path d="M 4.367188 -3.28125 C 3.683594 -3.28125 3.207031 -3.195312 2.9375 -3.019531 C 2.667969 -2.84375 2.53125 -2.546875 2.53125 -2.121094 C 2.53125 -1.804688 2.625 -1.554688 2.8125 -1.367188 C 3 -1.179688 3.253906 -1.085938 3.574219 -1.085938 C 4.058594 -1.085938 4.433594 -1.265625 4.699219 -1.632812 C 4.964844 -1.996094 5.097656 -2.503906 5.097656 -3.15625 L 5.097656 -3.28125 Z M 6.914062 -3.988281 L 6.914062 0 L 5.097656 0 L 5.097656 -0.78125 C 4.875 -0.472656 4.59375 -0.234375 4.25 -0.0703125 C 3.902344 0.0976562 3.523438 0.179688 3.105469 0.179688 C 2.3125 0.179688 1.695312 -0.0273438 1.25 -0.449219 C 0.808594 -0.871094 0.585938 -1.457031 0.585938 -2.207031 C 0.585938 -3.023438 0.851562 -3.625 1.378906 -4.015625 C 1.90625 -4.402344 2.722656 -4.597656 3.832031 -4.597656 L 5.097656 -4.597656 L 5.097656 -4.902344 C 5.097656 -5.199219 4.988281 -5.421875 4.777344 -5.574219 C 4.5625 -5.726562 4.246094 -5.800781 3.832031 -5.800781 C 3.394531 -5.800781 2.972656 -5.746094 2.5625 -5.636719 C 2.152344 -5.527344 1.722656 -5.351562 1.277344 -5.109375 L 1.277344 -6.667969 C 1.683594 -6.835938 2.09375 -6.957031 2.507812 -7.039062 C 2.925781 -7.117188 3.363281 -7.15625 3.832031 -7.15625 C 4.964844 -7.15625 5.765625 -6.925781 6.222656 -6.464844 C 6.683594 -6.003906 6.914062 -5.175781 6.914062 -3.988281 Z "/>
</g>
<g id="glyph-0-3">
<path d="M 1.378906 -6.988281 L 4.996094 -6.988281 L 4.996094 -1.402344 L 7.269531 -1.402344 L 7.269531 0 L 0.890625 0 L 0.890625 -1.402344 L 3.167969 -1.402344 L 3.167969 -5.582031 L 1.378906 -5.582031 Z M 3.167969 -10.386719 L 4.996094 -10.386719 L 4.996094 -8.253906 L 3.167969 -8.253906 Z "/>
</g>
<g id="glyph-0-4">
<path d="M 3.84375 -5.671875 C 3.40625 -5.671875 3.0625 -5.480469 2.8125 -5.09375 C 2.5625 -4.710938 2.4375 -4.175781 2.4375 -3.488281 C 2.4375 -2.800781 2.5625 -2.265625 2.8125 -1.882812 C 3.0625 -1.496094 3.40625 -1.304688 3.84375 -1.304688 C 4.285156 -1.304688 4.628906 -1.496094 4.878906 -1.882812 C 5.128906 -2.265625 5.253906 -2.800781 5.253906 -3.488281 C 5.253906 -4.175781 5.128906 -4.710938 4.878906 -5.09375 C 4.628906 -5.480469 4.285156 -5.671875 3.84375 -5.671875 Z M 0.613281 -3.488281 C 0.613281 -4.613281 0.902344 -5.507812 1.488281 -6.167969 C 2.074219 -6.828125 2.859375 -7.15625 3.84375 -7.15625 C 4.832031 -7.15625 5.621094 -6.828125 6.203125 -6.167969 C 6.789062 -5.507812 7.082031 -4.613281 7.082031 -3.488281 C 7.082031 -2.359375 6.789062 -1.46875 6.203125 -0.808594 C 5.621094 -0.148438 4.832031 0.179688 3.84375 0.179688 C 2.859375 0.179688 2.074219 -0.148438 1.488281 -0.808594 C 0.902344 -1.46875 0.613281 -2.359375 0.613281 -3.488281 Z "/>
</g>
<g id="glyph-0-5">
<path d="M 6.683594 -4.535156 L 6.683594 0 L 4.867188 0 L 4.867188 -4.253906 C 4.867188 -4.761719 4.792969 -5.125 4.652344 -5.34375 C 4.507812 -5.5625 4.273438 -5.671875 3.949219 -5.671875 C 3.621094 -5.671875 3.363281 -5.523438 3.171875 -5.226562 C 2.984375 -4.933594 2.886719 -4.523438 2.886719 -4 L 2.886719 0 L 1.074219 0 L 1.074219 -6.988281 L 2.886719 -6.988281 L 2.886719 -5.941406 C 3.015625 -6.328125 3.238281 -6.625 3.550781 -6.835938 C 3.863281 -7.050781 4.238281 -7.15625 4.679688 -7.15625 C 5.339844 -7.15625 5.839844 -6.9375 6.175781 -6.496094 C 6.511719 -6.058594 6.683594 -5.40625 6.683594 -4.535156 Z "/>
</g>
<g id="glyph-0-6">
<rect x="0" y="0" width="0" height="0" mask="url(#mask-0)"/>
</g>
<g id="glyph-0-7">
<path d="M 3.425781 -4.167969 L 2.4375 -4.167969 L 2.4375 -5.789062 L 3.425781 -5.789062 C 3.882812 -5.789062 4.238281 -5.878906 4.488281 -6.0625 C 4.742188 -6.242188 4.867188 -6.496094 4.867188 -6.824219 C 4.867188 -7.171875 4.742188 -7.441406 4.488281 -7.632812 C 4.238281 -7.828125 3.882812 -7.921875 3.425781 -7.921875 C 3.074219 -7.921875 2.703125 -7.878906 2.300781 -7.792969 C 1.902344 -7.707031 1.488281 -7.578125 1.0625 -7.410156 L 1.0625 -9.082031 C 1.488281 -9.210938 1.910156 -9.3125 2.328125 -9.378906 C 2.742188 -9.449219 3.140625 -9.484375 3.523438 -9.484375 C 4.507812 -9.484375 5.273438 -9.269531 5.820312 -8.839844 C 6.371094 -8.410156 6.644531 -7.820312 6.644531 -7.070312 C 6.644531 -6.515625 6.488281 -6.0625 6.171875 -5.710938 C 5.855469 -5.359375 5.402344 -5.128906 4.816406 -5.023438 C 5.480469 -4.90625 5.988281 -4.640625 6.339844 -4.226562 C 6.6875 -3.8125 6.863281 -3.269531 6.863281 -2.59375 C 6.863281 -1.691406 6.574219 -1.003906 5.996094 -0.53125 C 5.417969 -0.0546875 4.578125 0.179688 3.476562 0.179688 C 3.003906 0.179688 2.542969 0.140625 2.085938 0.0625 C 1.632812 -0.015625 1.195312 -0.132812 0.78125 -0.28125 L 0.78125 -1.988281 C 1.171875 -1.792969 1.59375 -1.644531 2.046875 -1.542969 C 2.5 -1.441406 2.976562 -1.390625 3.476562 -1.390625 C 3.976562 -1.390625 4.371094 -1.507812 4.660156 -1.738281 C 4.953125 -1.96875 5.097656 -2.277344 5.097656 -2.671875 C 5.097656 -3.148438 4.953125 -3.519531 4.660156 -3.777344 C 4.371094 -4.039062 3.957031 -4.167969 3.425781 -4.167969 Z "/>
</g>
<g id="glyph-0-8">
<path d="M 0 -4.304688 L 7.691406 -4.304688 L 7.691406 -2.769531 L 0 -2.769531 Z "/>
</g>
<g id="glyph-0-9">
<path d="M 2.695312 -7.65625 L 2.695312 -1.660156 L 3.195312 -1.660156 C 3.917969 -1.660156 4.433594 -1.886719 4.742188 -2.34375 C 5.050781 -2.796875 5.203125 -3.574219 5.203125 -4.667969 C 5.203125 -5.753906 5.050781 -6.523438 4.742188 -6.976562 C 4.433594 -7.429688 3.917969 -7.65625 3.195312 -7.65625 Z M 0.855469 -9.316406 L 2.828125 -9.316406 C 4.347656 -9.316406 5.445312 -8.953125 6.113281 -8.226562 C 6.785156 -7.5 7.117188 -6.3125 7.117188 -4.667969 C 7.117188 -3.015625 6.785156 -1.824219 6.113281 -1.09375 C 5.445312 -0.363281 4.347656 0 2.828125 0 L 0.855469 0 Z "/>
</g>
<g id="glyph-0-10">
<path d="M 6.875 -0.34375 C 6.449219 -0.167969 6.019531 -0.0390625 5.578125 0.0507812 C 5.136719 0.136719 4.671875 0.179688 4.179688 0.179688 C 3.011719 0.179688 2.117188 -0.132812 1.5 -0.757812 C 0.882812 -1.382812 0.574219 -2.285156 0.574219 -3.460938 C 0.574219 -4.601562 0.871094 -5.503906 1.464844 -6.164062 C 2.058594 -6.824219 2.871094 -7.15625 3.898438 -7.15625 C 4.933594 -7.15625 5.738281 -6.847656 6.3125 -6.234375 C 6.882812 -5.621094 7.167969 -4.757812 7.167969 -3.644531 L 7.167969 -2.902344 L 2.433594 -2.902344 C 2.4375 -2.351562 2.597656 -1.941406 2.917969 -1.671875 C 3.238281 -1.402344 3.71875 -1.265625 4.355469 -1.265625 C 4.773438 -1.265625 5.1875 -1.328125 5.597656 -1.449219 C 6.003906 -1.570312 6.429688 -1.757812 6.875 -2.019531 Z M 5.328125 -4.273438 C 5.320312 -4.757812 5.195312 -5.121094 4.957031 -5.367188 C 4.71875 -5.617188 4.363281 -5.738281 3.898438 -5.738281 C 3.480469 -5.738281 3.144531 -5.613281 2.894531 -5.355469 C 2.644531 -5.101562 2.496094 -4.738281 2.453125 -4.265625 Z "/>
</g>
<g id="glyph-0-11">
<path d="M 7.195312 -6.988281 L 4.972656 0 L 2.71875 0 L 0.5 -6.988281 L 2.351562 -6.988281 L 3.84375 -1.535156 L 5.339844 -6.988281 Z "/>
</g>
<g id="glyph-0-12">
<path d="M 2.414062 -2.914062 L 2.414062 -8.304688 L 0.5625 -8.304688 L 0.5625 -9.707031 L 4.242188 -9.707031 L 4.242188 -2.914062 C 4.242188 -2.363281 4.328125 -1.976562 4.5 -1.746094 C 4.667969 -1.519531 4.957031 -1.402344 5.367188 -1.402344 L 6.824219 -1.402344 L 6.824219 0 L 4.855469 0 C 3.984375 0 3.359375 -0.222656 2.980469 -0.671875 C 2.601562 -1.121094 2.414062 -1.871094 2.414062 -2.914062 Z "/>
</g>
<g id="glyph-0-13">
<path d="M 2.757812 -0.984375 L 2.757812 2.65625 L 0.9375 2.65625 L 0.9375 -6.988281 L 2.757812 -6.988281 L 2.757812 -5.941406 C 2.949219 -6.34375 3.199219 -6.648438 3.511719 -6.851562 C 3.824219 -7.054688 4.191406 -7.15625 4.609375 -7.15625 C 5.410156 -7.15625 6.027344 -6.835938 6.46875 -6.195312 C 6.910156 -5.554688 7.132812 -4.652344 7.132812 -3.488281 C 7.132812 -2.304688 6.90625 -1.398438 6.460938 -0.765625 C 6.011719 -0.132812 5.375 0.179688 4.546875 0.179688 C 4.171875 0.179688 3.839844 0.0859375 3.539062 -0.109375 C 3.242188 -0.300781 2.980469 -0.59375 2.757812 -0.984375 Z M 5.304688 -3.5 C 5.304688 -4.175781 5.191406 -4.703125 4.964844 -5.085938 C 4.742188 -5.46875 4.433594 -5.660156 4.035156 -5.660156 C 3.640625 -5.660156 3.328125 -5.46875 3.101562 -5.085938 C 2.871094 -4.703125 2.757812 -4.175781 2.757812 -3.5 C 2.757812 -2.828125 2.871094 -2.296875 3.101562 -1.914062 C 3.328125 -1.53125 3.640625 -1.339844 4.035156 -1.339844 C 4.429688 -1.339844 4.742188 -1.53125 4.964844 -1.914062 C 5.191406 -2.296875 5.304688 -2.828125 5.304688 -3.5 Z "/>
</g>
<g id="glyph-0-14">
<path d="M 7.179688 -5.058594 C 6.980469 -5.242188 6.746094 -5.378906 6.480469 -5.472656 C 6.210938 -5.5625 5.917969 -5.609375 5.597656 -5.609375 C 5.210938 -5.609375 4.871094 -5.542969 4.582031 -5.40625 C 4.292969 -5.269531 4.070312 -5.074219 3.910156 -4.816406 C 3.8125 -4.660156 3.742188 -4.46875 3.703125 -4.242188 C 3.664062 -4.019531 3.644531 -3.675781 3.644531 -3.21875 L 3.644531 0 L 1.816406 0 L 1.816406 -6.988281 L 3.644531 -6.988281 L 3.644531 -5.902344 C 3.824219 -6.300781 4.097656 -6.609375 4.46875 -6.828125 C 4.835938 -7.046875 5.269531 -7.15625 5.765625 -7.15625 C 6.015625 -7.15625 6.257812 -7.125 6.496094 -7.066406 C 6.738281 -7.003906 6.964844 -6.917969 7.179688 -6.800781 Z "/>
</g>
<g id="glyph-0-15">
<path d="M 6.183594 -6.769531 L 6.183594 -5.171875 C 5.847656 -5.386719 5.496094 -5.550781 5.132812 -5.660156 C 4.769531 -5.773438 4.402344 -5.828125 4.035156 -5.828125 C 3.628906 -5.828125 3.320312 -5.769531 3.113281 -5.648438 C 2.90625 -5.53125 2.800781 -5.355469 2.800781 -5.121094 C 2.800781 -4.789062 3.246094 -4.519531 4.136719 -4.3125 L 4.203125 -4.292969 L 4.730469 -4.167969 C 5.394531 -4.007812 5.882812 -3.753906 6.191406 -3.402344 C 6.5 -3.050781 6.65625 -2.578125 6.65625 -1.976562 C 6.65625 -1.257812 6.421875 -0.71875 5.949219 -0.359375 C 5.476562 0 4.765625 0.179688 3.816406 0.179688 C 3.398438 0.179688 2.96875 0.144531 2.527344 0.0703125 C 2.085938 0 1.640625 -0.109375 1.183594 -0.253906 L 1.183594 -1.851562 C 1.589844 -1.625 2 -1.449219 2.417969 -1.328125 C 2.835938 -1.207031 3.238281 -1.148438 3.632812 -1.148438 C 4.058594 -1.148438 4.382812 -1.210938 4.605469 -1.335938 C 4.824219 -1.460938 4.933594 -1.640625 4.933594 -1.878906 C 4.933594 -2.109375 4.855469 -2.289062 4.699219 -2.414062 C 4.542969 -2.539062 4.175781 -2.671875 3.585938 -2.8125 L 3.082031 -2.925781 C 2.382812 -3.085938 1.875 -3.332031 1.554688 -3.667969 C 1.234375 -4.003906 1.074219 -4.457031 1.074219 -5.023438 C 1.074219 -5.695312 1.316406 -6.21875 1.804688 -6.59375 C 2.289062 -6.96875 2.972656 -7.15625 3.855469 -7.15625 C 4.25 -7.15625 4.644531 -7.125 5.039062 -7.058594 C 5.429688 -6.996094 5.8125 -6.898438 6.183594 -6.769531 Z "/>
</g>
<g id="glyph-0-16">
<path d="M 4.933594 -5.996094 L 4.933594 -9.707031 L 6.757812 -9.707031 L 6.757812 0 L 4.933594 0 L 4.933594 -1.035156 C 4.738281 -0.632812 4.488281 -0.328125 4.175781 -0.125 C 3.867188 0.078125 3.503906 0.179688 3.082031 0.179688 C 2.285156 0.179688 1.664062 -0.140625 1.222656 -0.78125 C 0.78125 -1.421875 0.5625 -2.324219 0.5625 -3.488281 C 0.5625 -4.667969 0.785156 -5.574219 1.230469 -6.207031 C 1.679688 -6.839844 2.316406 -7.15625 3.144531 -7.15625 C 3.519531 -7.15625 3.855469 -7.058594 4.152344 -6.867188 C 4.449219 -6.671875 4.710938 -6.382812 4.933594 -5.996094 Z M 2.390625 -3.476562 C 2.390625 -2.800781 2.5 -2.273438 2.726562 -1.890625 C 2.949219 -1.507812 3.261719 -1.316406 3.65625 -1.316406 C 4.050781 -1.316406 4.363281 -1.507812 4.59375 -1.890625 C 4.820312 -2.273438 4.933594 -2.800781 4.933594 -3.476562 C 4.933594 -4.148438 4.820312 -4.675781 4.59375 -5.058594 C 4.363281 -5.441406 4.050781 -5.632812 3.65625 -5.632812 C 3.261719 -5.632812 2.949219 -5.441406 2.726562 -5.058594 C 2.5 -4.675781 2.390625 -4.148438 2.390625 -3.476562 Z "/>
</g>
<g id="glyph-0-17">
<path d="M 5.304688 -3.476562 C 5.304688 -4.148438 5.191406 -4.675781 4.964844 -5.058594 C 4.742188 -5.441406 4.433594 -5.632812 4.035156 -5.632812 C 3.640625 -5.632812 3.328125 -5.441406 3.101562 -5.058594 C 2.871094 -4.675781 2.757812 -4.148438 2.757812 -3.476562 C 2.757812 -2.800781 2.871094 -2.273438 3.101562 -1.890625 C 3.328125 -1.507812 3.640625 -1.316406 4.035156 -1.316406 C 4.429688 -1.316406 4.742188 -1.507812 4.964844 -1.890625 C 5.191406 -2.273438 5.304688 -2.800781 5.304688 -3.476562 Z M 2.757812 -5.996094 C 2.980469 -6.382812 3.242188 -6.671875 3.539062 -6.867188 C 3.835938 -7.058594 4.175781 -7.15625 4.546875 -7.15625 C 5.375 -7.15625 6.011719 -6.839844 6.460938 -6.207031 C 6.90625 -5.574219 7.132812 -4.667969 7.132812 -3.488281 C 7.132812 -2.324219 6.910156 -1.421875 6.46875 -0.78125 C 6.027344 -0.140625 5.410156 0.179688 4.609375 0.179688 C 4.191406 0.179688 3.824219 0.078125 3.511719 -0.125 C 3.199219 -0.328125 2.949219 -0.632812 2.757812 -1.035156 L 2.757812 0 L 0.9375 0 L 0.9375 -9.707031 L 2.757812 -9.707031 Z "/>
</g>
<g id="glyph-0-18">
<path d="M 7.144531 -6.988281 L 4.792969 -3.644531 L 7.347656 0 L 5.214844 0 L 3.84375 -2.351562 L 2.476562 0 L 0.34375 0 L 2.925781 -3.644531 L 0.550781 -6.988281 L 2.683594 -6.988281 L 3.84375 -4.902344 L 5.011719 -6.988281 Z "/>
</g>
</g>
<image id="source-91" x="0" y="0" width="0" height="0"/>
<mask id="mask-0">
<use xlink:href="#source-91"/>
</mask>
</defs>
<g fill="rgb(22.352941%, 100%, 7.843137%)" fill-opacity="1">
<use xlink:href="#glyph-0-0" x="30" y="31.860352"/>
<use xlink:href="#glyph-0-1" x="38" y="31.860352"/>
<use xlink:href="#glyph-0-2" x="46" y="31.860352"/>
<use xlink:href="#glyph-0-1" x="54" y="31.860352"/>
<use xlink:href="#glyph-0-3" x="62" y="31.860352"/>
<use xlink:href="#glyph-0-4" x="70" y="31.860352"/>
<use xlink:href="#glyph-0-5" x="78" y="31.860352"/>
<use xlink:href="#glyph-0-6" x="86" y="31.860352"/>
<use xlink:href="#glyph-0-7" x="94" y="31.860352"/>
<use xlink:href="#glyph-0-6" x="102" y="31.860352"/>
<use xlink:href="#glyph-0-8" x="110" y="31.860352"/>
<use xlink:href="#glyph-0-6" x="118" y="31.860352"/>
<use xlink:href="#glyph-0-9" x="126" y="31.860352"/>
<use xlink:href="#glyph-0-10" x="134" y="31.860352"/>
<use xlink:href="#glyph-0-11" x="142" y="31.860352"/>
<use xlink:href="#glyph-0-10" x="150" y="31.860352"/>
<use xlink:href="#glyph-0-12" x="158" y="31.860352"/>
<use xlink:href="#glyph-0-4" x="166" y="31.860352"/>
<use xlink:href="#glyph-0-13" x="174" y="31.860352"/>
<use xlink:href="#glyph-0-10" x="182" y="31.860352"/>
<use xlink:href="#glyph-0-14" x="190" y="31.860352"/>
<use xlink:href="#glyph-0-6" x="198" y="31.860352"/>
<use xlink:href="#glyph-0-3" x="206" y="31.860352"/>
<use xlink:href="#glyph-0-5" x="214" y="31.860352"/>
<use xlink:href="#glyph-0-6" x="222" y="31.860352"/>
<use xlink:href="#glyph-0-2" x="230" y="31.860352"/>
<use xlink:href="#glyph-0-6" x="238" y="31.860352"/>
<use xlink:href="#glyph-0-15" x="246" y="31.860352"/>
<use xlink:href="#glyph-0-2" x="254" y="31.860352"/>
<use xlink:href="#glyph-0-5" x="262" y="31.860352"/>
<use xlink:href="#glyph-0-16" x="270" y="31.860352"/>
<use xlink:href="#glyph-0-17" x="278" y="31.860352"/>
<use xlink:href="#glyph-0-4" x="286" y="31.860352"/>
<use xlink:href="#glyph-0-18" x="294" y="31.860352"/>
</g>
</svg>
